<svg width="148" height="192" viewBox="0 0 148 192" fill="none" xmlns="http://www.w3.org/2000/svg">
<circle cx="8" cy="8" r="8" fill="#FF5437"/>
<circle cx="8" cy="30" r="8" fill="#FF5437"/>
<circle cx="8" cy="52" r="8" fill="#FF5437"/>
<circle cx="8" cy="74" r="8" fill="#FF5437"/>
<circle cx="8" cy="96" r="8" fill="#FF5437"/>
<circle cx="8" cy="162" r="8" fill="#FF5437"/>
<circle cx="8" cy="184" r="8" fill="#FF5437"/>
<circle cx="30" cy="8" r="8" fill="#FF5437"/>
<circle cx="30" cy="30" r="8" fill="#FF5437"/>
<circle cx="30" cy="52" r="8" fill="#FF5437"/>
<circle cx="30" cy="74" r="8" fill="#FF5437"/>
<circle cx="30" cy="140" r="8" fill="#FF5437"/>
<circle cx="30" cy="162" r="8" fill="#FF5437"/>
<circle cx="30" cy="184" r="8" fill="#FF5437"/>
<circle cx="52" cy="8" r="8" fill="#FF5437"/>
<circle cx="52" cy="30" r="8" fill="#FF5437"/>
<circle cx="52" cy="52" r="8" fill="#FF5437"/>
<circle cx="52" cy="140" r="8" fill="#FF5437"/>
<circle cx="52" cy="162" r="8" fill="#FF5437"/>
<circle cx="52" cy="184" r="8" fill="#FF5437"/>
<circle cx="74" cy="8" r="8" fill="#FF5437"/>
<circle cx="74" cy="30" r="8" fill="#FF5437"/>
<circle cx="74" cy="96" r="8" fill="#FF5437"/>
<circle cx="74" cy="162" r="8" fill="#FF5437"/>
<circle cx="74" cy="184" r="8" fill="#FF5437"/>
<circle cx="96" cy="8" r="8" fill="#FF5437"/>
<circle cx="96" cy="74" r="8" fill="#FF5437"/>
<circle cx="96" cy="96" r="8" fill="#FF5437"/>
<circle cx="96" cy="118" r="8" fill="#FF5437"/>
<circle cx="96" cy="184" r="8" fill="#FF5437"/>
<circle cx="118" cy="52" r="8" fill="#FF5437"/>
<circle cx="118" cy="74" r="8" fill="#FF5437"/>
<circle cx="118" cy="96" r="8" fill="#FF5437"/>
<circle cx="118" cy="118" r="8" fill="#FF5437"/>
<circle cx="118" cy="140" r="8" fill="#FF5437"/>
<circle cx="140" cy="30" r="8" fill="#FF5437"/>
<circle cx="140" cy="52" r="8" fill="#FF5437"/>
<circle cx="140" cy="74" r="8" fill="#FF5437"/>
<circle cx="140" cy="96" r="8" fill="#FF5437"/>
<circle cx="140" cy="118" r="8" fill="#FF5437"/>
<circle cx="140" cy="140" r="8" fill="#FF5437"/>
<circle cx="140" cy="162" r="8" fill="#FF5437"/>
</svg>
