<?xml version="1.0" encoding="UTF-8" standalone="no"?>
<!-- Created with Inkscape (http://www.inkscape.org/) -->

<svg
   xmlns:dc="http://purl.org/dc/elements/1.1/"
   xmlns:cc="http://creativecommons.org/ns#"
   xmlns:rdf="http://www.w3.org/1999/02/22-rdf-syntax-ns#"
   xmlns:svg="http://www.w3.org/2000/svg"
   xmlns="http://www.w3.org/2000/svg"
   xmlns:sodipodi="http://sodipodi.sourceforge.net/DTD/sodipodi-0.dtd"
   xmlns:inkscape="http://www.inkscape.org/namespaces/inkscape"
   width="24"
   height="24"
   id="svg20499"
   version="1.1"
   inkscape:version="0.48.2 r9819"
   sodipodi:docname="New document 32">
  <defs
     id="defs20501" />
  <sodipodi:namedview
     id="base"
     pagecolor="#ffffff"
     bordercolor="#666666"
     borderopacity="1.0"
     inkscape:pageopacity="0.0"
     inkscape:pageshadow="2"
     inkscape:zoom="7.9195959"
     inkscape:cx="-36.673165"
     inkscape:cy="-2.8478129"
     inkscape:document-units="px"
     inkscape:current-layer="layer1"
     showgrid="false"
     fit-margin-top="0"
     fit-margin-left="0"
     fit-margin-right="0"
     fit-margin-bottom="0"
     inkscape:window-width="1366"
     inkscape:window-height="720"
     inkscape:window-x="1"
     inkscape:window-y="0"
     inkscape:window-maximized="0" />
  <metadata
     id="metadata20504">
    <rdf:RDF>
      <cc:Work
         rdf:about="">
        <dc:format>image/svg+xml</dc:format>
        <dc:type
           rdf:resource="http://purl.org/dc/dcmitype/StillImage" />
        <dc:title></dc:title>
      </cc:Work>
    </rdf:RDF>
  </metadata>
  <g
     inkscape:label="Layer 1"
     inkscape:groupmode="layer"
     id="layer1"
     transform="translate(-363,-520.3622)">
    <g
       transform="translate(-129,-1507.6378)"
       id="e-mail_2_"
       style="fill:#e1c165;fill-opacity:1">
      <path
         inkscape:connector-curvature="0"
         id="path15324"
         d="m 504.195,2037.243 c -0.541,0 -1.002,0.342 -1.41,1.046 -0.422,0.727 -0.636,1.438 -0.636,2.115 0,0.385 0.086,0.695 0.255,0.924 0.159,0.214 0.38,0.317 0.676,0.317 0.54,0 1,-0.442 1.368,-1.314 0.392,-0.928 0.59,-1.662 0.59,-2.183 0,-0.265 -0.075,-0.479 -0.231,-0.654 -0.151,-0.169 -0.351,-0.251 -0.612,-0.251 z"
         style="fill:#e1c165;fill-opacity:1" />
      <path
         inkscape:connector-curvature="0"
         id="path15326"
         d="m 513.5,2028 h -19 c -1.375,0 -2.5,1.125 -2.5,2.5 v 19 c 0,1.375 1.125,2.5 2.5,2.5 h 19 c 1.375,0 2.5,-1.125 2.5,-2.5 v -19 c 0,-1.375 -1.125,-2.5 -2.5,-2.5 z m -6.812,13.438 c 0.082,0.108 0.215,0.16 0.407,0.16 0.44,0 0.9,-0.308 1.368,-0.915 0.48,-0.625 0.724,-1.473 0.724,-2.519 0,-1.554 -0.647,-2.638 -1.979,-3.314 -0.841,-0.432 -1.802,-0.649 -2.855,-0.649 -1.938,0 -3.516,0.599 -4.688,1.78 -1.053,1.065 -1.587,2.36 -1.587,3.848 0,1.65 0.623,2.976 1.853,3.938 1.097,0.858 2.457,1.293 4.043,1.293 1.087,0 2.117,-0.202 3.062,-0.603 0.515,-0.212 1.055,-0.517 1.608,-0.907 l 0.381,-0.272 0.86,1.32 -0.146,0.113 c -0.851,0.659 -1.785,1.168 -2.777,1.512 -0.993,0.346 -2.037,0.521 -3.104,0.521 -2.496,0 -4.459,-0.791 -5.837,-2.35 -1.143,-1.293 -1.722,-2.847 -1.722,-4.617 0,-1.981 0.724,-3.685 2.149,-5.062 1.494,-1.451 3.431,-2.188 5.756,-2.188 1.896,0 3.49,0.506 4.74,1.503 1.33,1.062 2.005,2.49 2.005,4.243 0,1.38 -0.427,2.582 -1.269,3.574 -0.85,1.001 -1.839,1.508 -2.939,1.508 -0.597,0 -1.066,-0.176 -1.396,-0.521 -0.225,-0.235 -0.373,-0.48 -0.444,-0.732 -0.142,0.196 -0.292,0.368 -0.449,0.512 -0.535,0.487 -1.188,0.734 -1.938,0.734 -0.77,0 -1.418,-0.281 -1.93,-0.835 -0.508,-0.547 -0.766,-1.315 -0.766,-2.284 0,-1.107 0.381,-2.158 1.13,-3.122 0.763,-0.979 1.715,-1.475 2.83,-1.475 0.672,0 1.205,0.192 1.584,0.571 0.127,0.13 0.238,0.356 0.331,0.495 l 0.215,-0.697 h 2.089 l -1.205,4.066 c -0.068,0.24 -0.121,0.405 -0.159,0.559 0,0 -0.08,0.338 -0.08,0.438 10e-4,0.138 0.046,0.255 0.135,0.374 z"
         style="fill:#e1c165;fill-opacity:1" />
    </g>
  </g>
</svg>
