<?xml version="1.0" encoding="UTF-8" standalone="no"?>
<!-- Created with Inkscape (http://www.inkscape.org/) -->

<svg
   xmlns:dc="http://purl.org/dc/elements/1.1/"
   xmlns:cc="http://creativecommons.org/ns#"
   xmlns:rdf="http://www.w3.org/1999/02/22-rdf-syntax-ns#"
   xmlns:svg="http://www.w3.org/2000/svg"
   xmlns="http://www.w3.org/2000/svg"
   xmlns:sodipodi="http://sodipodi.sourceforge.net/DTD/sodipodi-0.dtd"
   xmlns:inkscape="http://www.inkscape.org/namespaces/inkscape"
   width="24"
   height="24"
   id="svg19293"
   version="1.1"
   inkscape:version="0.48.2 r9819"
   sodipodi:docname="fb.svg"
   inkscape:export-filename="/Users/sdecaste/devel/kpricorn.org/source/images/fb.png"
   inkscape:export-xdpi="90"
   inkscape:export-ydpi="90">
  <defs
     id="defs19295" />
  <sodipodi:namedview
     id="base"
     pagecolor="#ffffff"
     bordercolor="#666666"
     borderopacity="1.0"
     inkscape:pageopacity="0.0"
     inkscape:pageshadow="2"
     inkscape:zoom="15.839192"
     inkscape:cx="14.691906"
     inkscape:cy="8.8085534"
     inkscape:document-units="px"
     inkscape:current-layer="layer1"
     showgrid="false"
     fit-margin-top="0"
     fit-margin-left="0"
     fit-margin-right="0"
     fit-margin-bottom="0"
     inkscape:window-width="1366"
     inkscape:window-height="720"
     inkscape:window-x="1"
     inkscape:window-y="0"
     inkscape:window-maximized="0" />
  <metadata
     id="metadata19298">
    <rdf:RDF>
      <cc:Work
         rdf:about="">
        <dc:format>image/svg+xml</dc:format>
        <dc:type
           rdf:resource="http://purl.org/dc/dcmitype/StillImage" />
        <dc:title></dc:title>
      </cc:Work>
    </rdf:RDF>
  </metadata>
  <g
     inkscape:label="Layer 1"
     inkscape:groupmode="layer"
     id="layer1"
     transform="translate(-363,-520.3622)">
    <g
       transform="translate(303,-1507.6378)"
       id="facebook_1_"
       style="fill:#e1c165;fill-opacity:1">
      <path
         inkscape:connector-curvature="0"
         id="path15385"
         d="m 84,2030.5 v 19 c 0,1.375 -1.125,2.5 -2.5,2.5 H 76 v -10 h 3 v -3 h -3 l 0.005,-1.673 c 0,-0.9 0.302,-1.327 1.596,-1.327 H 79 v -4 c 0,0 -1,0 -4,0 -3,0 -3,3 -3,4 0,1 0,3 0,3 h -2 v 3 h 2 v 10 h -9.5 c -1.375,0 -2.5,-1.125 -2.5,-2.5 v -19 c 0,-1.375 1.125,-2.5 2.5,-2.5 h 19 c 1.375,0 2.5,1.125 2.5,2.5 z"
         style="fill:#e1c165;fill-opacity:1" />
    </g>
  </g>
</svg>
