<?xml version="1.0" encoding="UTF-8" standalone="no"?>
<!-- Created with Inkscape (http://www.inkscape.org/) -->

<svg
   xmlns:dc="http://purl.org/dc/elements/1.1/"
   xmlns:cc="http://creativecommons.org/ns#"
   xmlns:rdf="http://www.w3.org/1999/02/22-rdf-syntax-ns#"
   xmlns:svg="http://www.w3.org/2000/svg"
   xmlns="http://www.w3.org/2000/svg"
   xmlns:xlink="http://www.w3.org/1999/xlink"
   xmlns:sodipodi="http://sodipodi.sourceforge.net/DTD/sodipodi-0.dtd"
   xmlns:inkscape="http://www.inkscape.org/namespaces/inkscape"
   width="524.40002"
   height="262.20001"
   id="svg2"
   version="1.1"
   inkscape:version="0.48.2 r9819"
   sodipodi:docname="logo.svg"
   inkscape:export-filename="/Users/sdecaste/devel/kpricorn.org/source/images/logo.png"
   inkscape:export-xdpi="90"
   inkscape:export-ydpi="90">
  <defs
     id="defs4">
    <inkscape:path-effect
       effect="spiro"
       id="path-effect4013"
       is_visible="true" />
  </defs>
  <sodipodi:namedview
     id="base"
     pagecolor="#020000"
     bordercolor="#666666"
     borderopacity="1.0"
     inkscape:pageopacity="0"
     inkscape:pageshadow="2"
     inkscape:zoom="1.4142136"
     inkscape:cx="299.69437"
     inkscape:cy="102.41653"
     inkscape:document-units="px"
     inkscape:current-layer="layer1"
     showgrid="false"
     inkscape:snap-bbox="true"
     inkscape:object-nodes="false"
     inkscape:snap-smooth-nodes="false"
     inkscape:snap-midpoints="false"
     inkscape:snap-object-midpoints="false"
     inkscape:snap-center="false"
     inkscape:object-paths="false"
     inkscape:snap-page="false"
     inkscape:snap-nodes="true"
     inkscape:window-width="1366"
     inkscape:window-height="720"
     inkscape:window-x="1"
     inkscape:window-y="0"
     inkscape:window-maximized="0"
     inkscape:snap-bbox-midpoints="false"
     inkscape:bbox-paths="true"
     fit-margin-top="0"
     fit-margin-left="0"
     fit-margin-right="0"
     fit-margin-bottom="0" />
  <metadata
     id="metadata7">
    <rdf:RDF>
      <cc:Work
         rdf:about="">
        <dc:format>image/svg+xml</dc:format>
        <dc:type
           rdf:resource="http://purl.org/dc/dcmitype/StillImage" />
        <dc:title></dc:title>
      </cc:Work>
    </rdf:RDF>
  </metadata>
  <g
     inkscape:groupmode="layer"
     id="layer2"
     inkscape:label="bg"
     style="display:none"
     sodipodi:insensitive="true"
     transform="translate(0,-790.16211)">
    <image
       y="0"
       x="0"
       id="image3988"
       xlink:href="file:///Users/sdecaste/Downloads/Crangon_crangon.png"
       height="262.76654"
       width="420.23846"
       style="opacity:0.59913791" />
  </g>
  <g
     inkscape:label="Layer 1"
     inkscape:groupmode="layer"
     id="layer1"
     transform="translate(0,-790.16211)">
    <path
       style="fill:none;stroke:#000000;stroke-width:1;stroke-linecap:butt;stroke-linejoin:miter;stroke-opacity:1;stroke-miterlimit:4;stroke-dasharray:none"
       d="m 388.21233,870.87433 c -1.29189,-1.39159 -21.78488,-3.04456 -32.62152,-1.93778 -3.19852,0.32667 -6.13585,2.02071 -9.31408,2.50662 -4.00039,0.61161 -8.29463,-0.83295 -12.13065,0.49195 -1.88855,0.65228 3.38073,1.92756 2.38228,3.75993 -2.23314,4.09826 -12.95235,7.98976 -8.14487,10.9176 10.28506,6.26376 18.12036,13.07209 29.37351,14.81672 5.19926,0.80607 10.49242,-3.26454 15.8565,-4.41902 4.65628,-1.00214 11.27511,1.65109 14.12355,-2.16619"
       id="path3993"
       inkscape:connector-curvature="0"
       sodipodi:nodetypes="caassssac" />
    <path
       sodipodi:type="arc"
       style="fill:#000000;fill-opacity:1;stroke:#000000;stroke-opacity:1;stroke-width:5.83590327;stroke-miterlimit:4;stroke-dasharray:none"
       id="path3999"
       sodipodi:cx="116.8052"
       sodipodi:cy="99.403214"
       sodipodi:rx="10.827573"
       sodipodi:ry="10.120466"
       d="m 121.11053,108.68922 a 10.827573,10.120466 0 1 1 0.0286,-0.0116"
       sodipodi:start="1.1618676"
       sodipodi:end="7.4421743"
       sodipodi:open="true"
       transform="matrix(0.17135308,0,0,0.17135308,312.38149,859.22619)" />
    <path
       transform="matrix(-0.03110677,0.14716874,-0.14716874,-0.03110677,353.3317,857.3818)"
       sodipodi:end="4.2938392"
       sodipodi:start="1.1618676"
       d="m 121.11053,108.68922 a 10.827573,10.120466 0 0 1 -8.70605,-18.532867 l 4.40072,9.246861 z"
       sodipodi:ry="10.120466"
       sodipodi:rx="10.827573"
       sodipodi:cy="99.403214"
       sodipodi:cx="116.8052"
       id="path4001"
       style="fill:#000000;fill-opacity:1;stroke:#000000;stroke-opacity:1;stroke-width:6.64803849;stroke-miterlimit:4;stroke-dasharray:none"
       sodipodi:type="arc" />
    <path
       style="fill:none;stroke:#000000;stroke-width:1;stroke-linecap:butt;stroke-linejoin:miter;stroke-opacity:1;stroke-miterlimit:4;stroke-dasharray:none"
       d="m 330.27487,877.19344 c -1.03437,-0.43366 -2.45553,-0.0533 -3.29261,0.69318 -0.95431,0.85107 -1.61742,2.42613 -1.21306,3.6392 0.28882,0.86647 1.73705,2.31342 2.25283,1.55965 1.12158,-1.63908 3.46214,-1.99882 3.6392,-3.72584 0.0874,-0.85281 -0.59576,-1.83472 -1.38636,-2.16619 z"
       id="path4003"
       inkscape:connector-curvature="0"
       sodipodi:nodetypes="aaasaa" />
    <path
       style="fill:none;stroke:#000000;stroke-width:1;stroke-linecap:butt;stroke-linejoin:miter;stroke-opacity:1;stroke-miterlimit:4;stroke-dasharray:none"
       d="m 326.11579,882.13235 c -7.36204,2.35423 -7.28712,2.2775 -12.82384,3.89914 -0.7766,0.22746 1.11475,1.23061 1.38636,1.9929 0.1264,0.35473 -0.26767,1.25399 0.0866,1.12641 4.23936,-1.52641 6.78835,-2.11989 11.78406,-3.98579 0.70556,-0.26352 1.36418,-1.16839 1.21307,-1.90624 -0.13341,-0.65141 -1.01297,-1.32895 -1.6463,-1.12642 z"
       id="path4005"
       inkscape:connector-curvature="0"
       sodipodi:nodetypes="ssassas" />
    <path
       style="fill:none;stroke:#000000;stroke-width:1;stroke-linecap:butt;stroke-linejoin:miter;stroke-opacity:1;stroke-miterlimit:4;stroke-dasharray:none"
       d="m 327.37237,877.48316 c 0,0 -3.52009,-2.6583 -5.57549,-2.63457 -4.33562,0.0501 -18.24091,3.16357 -15.74614,4.71772 6.70326,4.17588 16.2363,3.55361 16.2363,3.55361 l 3.49234,-0.91904 c -0.15101,-1.62941 -0.18073,-3.2487 1.59299,-4.71772 z"
       id="path4015"
       inkscape:connector-curvature="0"
       sodipodi:nodetypes="cssccc" />
    <path
       style="fill:none;stroke:#000000;stroke-width:1;stroke-linecap:butt;stroke-linejoin:miter;stroke-opacity:1;stroke-miterlimit:4;stroke-dasharray:none"
       d="m 329.2351,872.51447 -8.23152,-2.07954 c 0,0 -16.06276,-7.98879 -10.74429,-7.45168 7.82563,0.79029 16.08585,1.4781 22.52835,7.01845 -4.49533,-0.55658 -3.09317,1.37 -3.55254,2.51277 z"
       id="path4017"
       inkscape:connector-curvature="0"
       sodipodi:nodetypes="ccscc" />
    <path
       style="fill:none;stroke:#000000;stroke-width:1;stroke-linecap:butt;stroke-linejoin:miter;stroke-opacity:1;stroke-miterlimit:4;stroke-dasharray:none"
       d="m 323.7575,875.52255 c 0,0 -2.78775,-3.06345 2.11378,-2.11378"
       id="path4037"
       inkscape:connector-curvature="0" />
    <path
       style="fill:none;stroke:#000000;stroke-width:1;stroke-linecap:butt;stroke-linejoin:miter;stroke-opacity:1;stroke-miterlimit:4;stroke-dasharray:none"
       d="m 325.59557,873.53131 c -2.78774,-1.7768 -0.67396,-1.74617 -0.67396,-1.74617"
       id="path4039"
       inkscape:connector-curvature="0" />
    <path
       style="fill:none;stroke:#000000;stroke-width:1;stroke-linecap:butt;stroke-linejoin:miter;stroke-opacity:1;stroke-miterlimit:4;stroke-dasharray:none"
       d="m 326.79031,876.31905 c -3.49233,-1.59299 0.0613,-1.86871 0.0613,-1.86871 0,0 -2.54266,-2.20568 0.91904,-1.83807"
       id="path4041"
       inkscape:connector-curvature="0" />
    <path
       style="fill:none;stroke:#000000;stroke-width:1;stroke-linecap:butt;stroke-linejoin:miter;stroke-opacity:1;stroke-miterlimit:4;stroke-dasharray:none"
       d="m 329.24108,876.96238 c -3.76805,-2.17506 0.36761,-2.14442 0.36761,-2.14442 0,0 -2.02188,-1.25602 -1.37855,-1.86871 0.64332,-0.61269 2.78774,0.0613 2.78774,0.0613"
       id="path4043"
       inkscape:connector-curvature="0" />
    <path
       inkscape:connector-curvature="0"
       style="fill:none;stroke:#000000;stroke-width:1;stroke-linecap:butt;stroke-linejoin:miter;stroke-opacity:1;stroke-miterlimit:4;stroke-dasharray:none"
       d="m 319.59556,871.54857 c -4.32234,0.0341 -10.29022,0.31765 -11.28584,1.58132 -1.593,2.02188 4.08819,-0.0992 6.13031,-0.065 2.82065,0.0472 8.4698,0.36826 8.4698,0.36826 l 1.27805,-1.84126 c 0,0 -1.99892,-0.0638 -4.59232,-0.0433 z"
       id="path4045" />
    <path
       sodipodi:nodetypes="casc"
       inkscape:connector-curvature="0"
       id="path4047"
       d="m 324.06384,871.72387 c 0,0 -6.25009,-0.12833 -9.37416,-0.0613 -2.06478,0.0443 -7.78117,2.32823 -6.18818,0.30635 1.593,-2.02188 12.07001,-1.53173 12.07001,-1.53173"
       style="fill:none;stroke:#000000;stroke-width:1;stroke-linecap:butt;stroke-linejoin:miter;stroke-opacity:1;stroke-miterlimit:4;stroke-dasharray:none" />
    <path
       style="fill:none;stroke:#000000;stroke-width:1;stroke-linecap:butt;stroke-linejoin:miter;stroke-opacity:1;stroke-miterlimit:4;stroke-dasharray:none"
       d="m 313.4643,887.10241 c -35.86535,48.67789 5.76499,80.59997 71.83175,107.23849 -91.17791,-37.32072 -92.84395,-71.75397 -70.31447,-105.40672"
       id="path4061"
       inkscape:connector-curvature="0"
       sodipodi:nodetypes="ccc" />
    <path
       style="fill:none;stroke:#000000;stroke-width:1;stroke-linecap:butt;stroke-linejoin:miter;stroke-opacity:1;stroke-miterlimit:4;stroke-dasharray:none"
       d="m 330.49709,887.96017 c 0,0 -5.02094,-0.4242 -9.68051,0.85777 -1.03374,0.28441 1.01629,2.55731 2.08315,2.45076 4.21441,-0.42089 10.90589,-0.73522 10.90589,-0.73522"
       id="path4063"
       inkscape:connector-curvature="0"
       sodipodi:nodetypes="cssc" />
    <path
       style="fill:none;stroke:#000000;stroke-width:1;stroke-linecap:butt;stroke-linejoin:miter;stroke-opacity:1;stroke-miterlimit:4;stroke-dasharray:none"
       d="m 320.44897,889.67571 c -3.1043,1.5113 -6.2086,3.0226 -9.3129,4.53391 -0.28592,0.9803 -0.57184,1.96061 -0.85777,2.94091 4.04376,-1.83807 8.08752,-3.67614 12.13128,-5.51421"
       id="path4065"
       inkscape:connector-curvature="0"
       sodipodi:nodetypes="cccc" />
    <path
       style="fill:none;stroke:#000000;stroke-width:1;stroke-linecap:butt;stroke-linejoin:miter;stroke-opacity:1;stroke-miterlimit:4;stroke-dasharray:none"
       d="m 338.58461,893.35185 c 0,0 -6.06751,-0.75342 -8.94529,-1.10284 -1.86918,-0.22696 -0.55736,4.90828 1.22539,5.51421 4.7259,1.60627 14.82711,-0.12254 14.82711,-0.12254"
       id="path4067"
       inkscape:connector-curvature="0"
       sodipodi:nodetypes="cssc" />
    <path
       style="fill:none;stroke:#000000;stroke-width:1;stroke-linecap:butt;stroke-linejoin:miter;stroke-opacity:1;stroke-miterlimit:4;stroke-dasharray:none"
       d="m 329.63932,892.37155 c 0,0 -3.92986,-0.50355 -3.92121,0 0.027,1.57115 -0.11366,3.33409 0.73523,4.65644 0.19637,0.3059 3.67614,0 3.67614,0"
       id="path4069"
       inkscape:connector-curvature="0"
       sodipodi:nodetypes="cssc" />
    <path
       style="fill:none;stroke:#000000;stroke-width:1;stroke-linecap:butt;stroke-linejoin:miter;stroke-opacity:1;stroke-miterlimit:4;stroke-dasharray:none"
       d="m 325.35049,893.59692 c -6.60278,1.187 -11.65519,4.61343 -15.31726,10.04813 l 1.34792,-4.41137 c -2.12959,3.3394 -8.64774,7.61303 0,9.80305 5.44838,1.37979 14.27111,-12.81898 14.58203,-11.8862"
       id="path4071"
       inkscape:connector-curvature="0"
       sodipodi:nodetypes="cccsc" />
    <path
       style="fill:none;stroke:#000000;stroke-width:1;stroke-linecap:butt;stroke-linejoin:miter;stroke-opacity:1;stroke-miterlimit:4;stroke-dasharray:none"
       d="m 333.65412,869.74175 c 0,0 -2.43393,-5.97509 -4.85226,-5.54544 -0.79217,0.14074 -0.86648,2.25284 -0.86648,2.25284"
       id="path4073"
       inkscape:connector-curvature="0"
       sodipodi:nodetypes="cac" />
    <path
       style="fill:none;stroke:#000000;stroke-width:1;stroke-linecap:butt;stroke-linejoin:round;stroke-opacity:1;stroke-miterlimit:4;stroke-dasharray:none"
       d="m 328.45527,864.36961 c -5.70981,-28.93054 69.57409,-10.77556 125.11903,-4.50567 -56.9527,-6.59083 -135.45885,-25.59722 -125.90969,6.11948"
       id="path4075"
       inkscape:connector-curvature="0"
       sodipodi:nodetypes="ccc" />
    <path
       style="fill:none;stroke:#000000;stroke-width:1;stroke-linecap:butt;stroke-linejoin:miter;stroke-opacity:1;stroke-miterlimit:4;stroke-dasharray:none"
       d="m 399.67954,906.48031 c 0,0 -8.72284,0.39974 -10.05112,-3.11931 -3.48588,-9.23526 -1.34709,-23.7738 -1.73295,-31.19312 -0.25889,-4.97819 14.38349,2.14787 14.38349,2.42614"
       id="path4077"
       inkscape:connector-curvature="0"
       sodipodi:nodetypes="cssc" />
    <path
       style="fill:none;stroke:#000000;stroke-width:1;stroke-linecap:butt;stroke-linejoin:miter;stroke-opacity:1;stroke-miterlimit:4;stroke-dasharray:none"
       d="m 402.45226,874.94061 c -2.13956,4.12893 -0.48305,9.33959 -1.55966,13.8636 -0.88435,3.71615 -4.07036,6.92531 -3.98578,10.7443 0.0625,2.82094 1.12022,5.99761 3.2926,7.79827 1.68354,1.39547 4.3206,2.02512 6.41192,1.38636 1.91456,-0.58476 3.24607,-2.55082 4.15908,-4.33237 1.01796,-1.98635 1.06175,-4.35834 1.21307,-6.58521 0.16857,-2.48086 -0.87615,-5.02215 -0.34659,-7.45169 0.91332,-4.19026 6.72901,-7.2313 5.89203,-11.43748 -0.38396,-1.92957 -2.723,-2.98016 -4.50567,-3.81249 -2.7622,-1.28967 -6.07964,-2.39517 -9.01135,-1.55966 -0.66894,0.19065 -1.23962,0.76877 -1.55965,1.38637 z"
       id="path4081"
       inkscape:connector-curvature="0"
       sodipodi:nodetypes="aaaaaaaaaaaa" />
    <path
       style="fill:none;stroke:#000000;stroke-width:1;stroke-linecap:butt;stroke-linejoin:miter;stroke-opacity:1;stroke-miterlimit:4;stroke-dasharray:none"
       d="m 417.52893,878.7531 c 0,0 10.39964,3.57507 11.61077,8.14487 1.45635,5.49508 -6.22367,9.83716 -7.27839,15.42326 -0.63378,3.35665 3.0255,7.7286 0.69318,10.22441 -1.14378,1.22394 -3.39817,0.39731 -5.02556,0 -3.28798,-0.80273 -9.01134,-4.67897 -9.01134,-4.67897"
       id="path4083"
       inkscape:connector-curvature="0"
       sodipodi:nodetypes="caaaac" />
    <path
       style="fill:none;stroke:#000000;stroke-width:1;stroke-linecap:butt;stroke-linejoin:miter;stroke-opacity:1;stroke-miterlimit:4;stroke-dasharray:none"
       d="m 429.1397,887.24456 c 0,0 9.7828,4.96948 11.09088,9.70452 0.54967,1.98971 -1.48199,3.87186 -1.90624,5.89203 -0.8234,3.92072 1.7593,9.27128 -1.21307,11.95736 -2.22861,2.01395 -6.05863,0.55155 -9.01134,0 -1.88755,-0.35258 -5.37215,-2.07954 -5.37215,-2.07954"
       id="path4085"
       inkscape:connector-curvature="0"
       sodipodi:nodetypes="caaaac" />
    <path
       style="fill:none;stroke:#000000;stroke-width:1;stroke-linecap:butt;stroke-linejoin:miter;stroke-opacity:1;stroke-miterlimit:4;stroke-dasharray:none"
       d="m 440.40388,897.12238 c 0,0 11.82306,5.25972 11.43747,10.3977 -0.0623,0.83076 -1.74968,0.62135 -2.07954,1.38636 -1.09044,2.52893 2.39424,5.58192 1.38636,8.14487 -0.45242,1.15046 -1.73479,2.00549 -2.94602,2.25283 -2.74539,0.56062 -5.73265,-0.6538 -8.14486,-2.07954 -1.09063,-0.64461 -2.59943,-2.77272 -2.59943,-2.77272"
       id="path4087"
       inkscape:connector-curvature="0"
       sodipodi:nodetypes="caaaaac" />
    <path
       style="fill:none;stroke:#000000;stroke-width:1;stroke-linecap:butt;stroke-linejoin:miter;stroke-opacity:1;stroke-miterlimit:4;stroke-dasharray:none"
       d="m 452.18794,907.34678 c 0,0 5.26918,3.72141 7.45169,6.06533 2.74113,2.94386 6.19797,5.92287 6.9318,9.87782 0.30415,1.63922 0.006,3.71554 -1.21306,4.85226 -1.45892,1.35979 -3.98006,1.60704 -5.89204,1.03977 -4.6234,-1.37173 -10.57099,-9.87782 -10.57099,-9.87782"
       id="path4089"
       inkscape:connector-curvature="0"
       sodipodi:nodetypes="caaaac" />
    <path
       style="fill:none;stroke:#000000;stroke-width:1;stroke-linecap:butt;stroke-linejoin:miter;stroke-opacity:1;stroke-miterlimit:4;stroke-dasharray:none"
       d="m 461.02599,930.39503 c 0,0 5.22229,13.82304 8.14487,23.74142 0.39219,1.33098 2.93394,0.47814 4.15908,-0.17329 1.20371,-0.64005 2.66838,-1.951 2.42613,-3.29261 -1.71839,-9.51663 -4.76796,-15.13394 -7.79828,-21.142 -0.44223,-0.87679 -2.59942,-1.38636 -2.59942,-1.38636"
       id="path4091"
       inkscape:connector-curvature="0"
       sodipodi:nodetypes="csassc" />
    <path
       style="fill:none;stroke:#000000;stroke-width:1;stroke-linecap:butt;stroke-linejoin:miter;stroke-opacity:1;stroke-miterlimit:4;stroke-dasharray:none"
       d="m 468.82427,931.78139 11.09088,10.571 c 0,0 -3.91887,-10.19454 -7.45169,-14.2102 -1.39723,-1.5882 -5.19885,-3.63919 -5.19885,-3.63919"
       id="path4093"
       inkscape:connector-curvature="0"
       sodipodi:nodetypes="ccac" />
    <path
       style="fill:none;stroke:#000000;stroke-width:1;stroke-linecap:butt;stroke-linejoin:miter;stroke-opacity:1;stroke-miterlimit:4;stroke-dasharray:none"
       d="m 476.44925,939.23308 c 0,0 3.00873,5.32454 2.59943,8.14486 -0.25082,1.72827 -2.94602,4.33238 -2.94602,4.33238"
       id="path4095"
       inkscape:connector-curvature="0"
       sodipodi:nodetypes="cac" />
    <path
       style="fill:none;stroke:#000000;stroke-width:1;stroke-linecap:butt;stroke-linejoin:miter;stroke-opacity:1;stroke-miterlimit:4;stroke-dasharray:none"
       d="m 474.19641,930.39503 c 0,0 4.57461,3.76751 6.41192,6.06532 1.34252,1.67902 3.47131,3.40312 3.29261,5.54545 -0.16354,1.96059 -1.84551,4.54621 -3.81249,4.50567 -0.65848,-0.0136 -1.21307,-1.55966 -1.21307,-1.55966"
       id="path4097"
       inkscape:connector-curvature="0"
       sodipodi:nodetypes="caaac" />
    <path
       style="fill:none;stroke:#000000;stroke-width:1;stroke-linecap:butt;stroke-linejoin:miter;stroke-opacity:1;stroke-miterlimit:4;stroke-dasharray:none"
       d="m 467.6112,924.67629 c 0,0 5.97209,1.46235 8.49146,3.11931 3.9259,2.58203 7.6581,5.99455 9.70452,10.22441 0.35578,0.73538 0.77607,1.73122 0.34659,2.42613 -0.48017,0.77694 -2.59942,0.86648 -2.59942,0.86648"
       id="path4099"
       inkscape:connector-curvature="0"
       sodipodi:nodetypes="caaac" />
    <path
       style="fill:none;stroke:#000000;stroke-width:1;stroke-linecap:butt;stroke-linejoin:round;stroke-opacity:1;stroke-miterlimit:4;stroke-dasharray:none"
       d="m 348.73079,898.85533 -3.11931,3.2926 1.90625,1.21307 3.2926,-3.6392"
       id="path4101"
       inkscape:connector-curvature="0" />
    <path
       style="fill:none;stroke:#000000;stroke-width:1;stroke-linecap:butt;stroke-linejoin:round;stroke-opacity:1;stroke-miterlimit:4;stroke-dasharray:none"
       d="m 345.95807,902.32123 -9.87782,9.53123 1.38636,0.69318 10.05112,-9.18464"
       id="path4103"
       inkscape:connector-curvature="0" />
    <path
       style="fill:none;stroke:#000000;stroke-width:1;stroke-linecap:butt;stroke-linejoin:round;stroke-opacity:1;stroke-miterlimit:4;stroke-dasharray:none"
       d="m 336.25355,912.02575 -7.19175,7.79828 2.33948,1.03977 5.89204,-8.14487"
       id="path4105"
       inkscape:connector-curvature="0"
       sodipodi:nodetypes="cccc" />
    <path
       style="fill:none;stroke:#000000;stroke-width:1;stroke-linecap:butt;stroke-linejoin:miter;stroke-opacity:1;stroke-miterlimit:4;stroke-dasharray:none"
       d="m 329.49504,919.99732 -4.85226,7.45169 6.23862,-6.75851"
       id="path4107"
       inkscape:connector-curvature="0" />
    <path
       style="fill:none;stroke:#000000;stroke-width:1;stroke-linecap:butt;stroke-linejoin:miter;stroke-opacity:1;stroke-miterlimit:4;stroke-dasharray:none"
       d="m 354.96941,900.84822 c 0,0 -2.77122,1.9713 -3.37925,3.4659 -0.15238,0.37455 -0.28592,0.92714 0,1.21307 0.42888,0.42888 1.24002,0.17878 1.8196,0 0.73489,-0.22669 1.32155,-0.80014 1.90624,-1.29972 1.02526,-0.876 2.77272,-2.94601 2.77272,-2.94601"
       id="path4109"
       inkscape:connector-curvature="0"
       sodipodi:nodetypes="caaaac" />
    <path
       style="fill:none;stroke:#000000;stroke-width:1;stroke-linecap:butt;stroke-linejoin:miter;stroke-opacity:1;stroke-miterlimit:4;stroke-dasharray:none"
       d="m 351.67681,904.48742 c 0,0 -3.96984,3.53662 -5.89204,5.37214 -1.86107,1.77716 -3.08767,2.99473 -5.45879,5.4588 -0.26034,0.27055 -0.2655,0.86091 0,1.12641 0.18381,0.18382 0.52227,0.0351 0.77983,0 0.53463,-0.0729 1.09942,-0.15159 1.55965,-0.43323 2.07481,-1.26971 3.19434,-3.67703 4.93891,-5.37215 1.86489,-1.81201 5.89203,-5.1122 5.89203,-5.1122"
       id="path4111"
       inkscape:connector-curvature="0"
       sodipodi:nodetypes="casaaaac" />
    <path
       style="fill:none;stroke:#000000;stroke-width:1;stroke-linecap:butt;stroke-linejoin:miter;stroke-opacity:1;stroke-miterlimit:4;stroke-dasharray:none"
       d="m 340.06604,916.27148 c 0,0 -4.13391,3.90755 -5.97868,6.06532 -0.5368,0.62788 -1.61532,1.17918 -1.47301,1.99289 0.0718,0.41032 0.62345,0.70694 1.03977,0.69318 1.09123,-0.036 1.79315,-1.25669 2.59943,-1.99289 2.23393,-2.03978 6.15197,-6.67185 6.15197,-6.67185"
       id="path4113"
       inkscape:connector-curvature="0"
       sodipodi:nodetypes="caaaac" />
    <path
       style="fill:none;stroke:#000000;stroke-width:1;stroke-linecap:butt;stroke-linejoin:miter;stroke-opacity:1;stroke-miterlimit:4;stroke-dasharray:none"
       d="m 332.44105,924.41634 c 0,0 -2.88395,2.06995 -4.24572,3.20596 -0.75342,0.62851 -1.56151,1.22022 -2.16619,1.99289 -0.85236,1.08918 -1.9929,3.6392 -1.9929,3.6392 0,0 3.25184,-3.23235 5.02556,-4.67897 1.62098,-1.32205 5.11221,-3.63919 5.11221,-3.63919"
       id="path4115"
       inkscape:connector-curvature="0"
       sodipodi:nodetypes="caacac" />
    <path
       style="fill:none;stroke:#000000;stroke-width:1;stroke-linecap:butt;stroke-linejoin:miter;stroke-opacity:1;stroke-miterlimit:4;stroke-dasharray:none"
       d="m 372.16005,897.76322 c 0,0 1.39285,1.29514 1.22538,2.08315 -0.21913,1.03108 -1.60494,1.42161 -2.5733,1.83807 -1.37614,0.59182 -2.94023,1.14015 -4.41137,0.85777 -0.66762,-0.12815 -1.54553,-0.44464 -1.71553,-1.10285 -0.15082,-0.58392 0.85776,-1.59299 0.85776,-1.59299"
       id="path4117"
       inkscape:connector-curvature="0"
       sodipodi:nodetypes="caaaac" />
    <path
       style="fill:none;stroke:#000000;stroke-width:1;stroke-linecap:butt;stroke-linejoin:miter;stroke-opacity:1;stroke-miterlimit:4;stroke-dasharray:none"
       d="m 364.67979,901.41571 c 0,0 -3.86049,2.57576 -5.50878,4.18995 -1.26701,1.24081 -3.12487,2.40244 -3.30852,4.1663 -0.0284,0.27253 0.16528,0.55045 0.36761,0.73523 0.74494,0.68028 1.81224,1.1765 2.81837,1.10284 0.32844,-0.0241 0.59222,-0.2954 0.85777,-0.49015 1.7947,-1.31626 3.45178,-2.84522 4.90152,-4.53392 1.04161,-1.21328 2.68679,-3.97421 2.68679,-3.97421"
       id="path4119"
       inkscape:connector-curvature="0"
       sodipodi:nodetypes="caaaaaac" />
    <path
       style="fill:none;stroke:#000000;stroke-width:1;stroke-linecap:butt;stroke-linejoin:miter;stroke-opacity:1;stroke-miterlimit:4;stroke-dasharray:none"
       d="m 355.91692,910.08501 c 0,0 -1.22123,1.68248 -1.98728,2.37398 -2.6402,2.38327 -6.65058,3.17411 -8.83805,5.97868 -0.20791,0.26657 -0.41981,0.62308 -0.34659,0.95312 0.12385,0.55827 0.65951,1.06962 1.21307,1.21306 0.81418,0.21098 1.68669,-0.29238 2.42613,-0.69317 1.27798,-0.69269 2.10575,-2.02008 3.29261,-2.85937 1.81642,-1.28449 4.31444,-1.64143 5.80538,-3.29261 0.5296,-0.58651 0.95371,-2.17041 0.95371,-2.17041"
       id="path4121"
       inkscape:connector-curvature="0"
       sodipodi:nodetypes="caaaaaaac" />
    <path
       style="fill:none;stroke:#000000;stroke-width:1;stroke-linecap:butt;stroke-linejoin:miter;stroke-opacity:1;stroke-miterlimit:4;stroke-dasharray:none"
       d="m 344.75021,919.41324 c 0,0 -3.04549,3.62737 -4.16429,5.69628 -1.13041,2.09038 -2.24742,4.31027 -2.51278,6.67186 -0.16602,1.47752 0.60654,4.41902 0.60654,4.41902 0,0 0.84143,-3.62495 1.6463,-5.28549 0.82463,-1.70133 2.26473,-3.03927 3.20596,-4.67897 1.02643,-1.78815 2.6429,-5.59236 2.6429,-5.59236"
       id="path4123"
       inkscape:connector-curvature="0"
       sodipodi:nodetypes="caacaac" />
    <path
       style="fill:none;stroke:#000000;stroke-width:1;stroke-linecap:butt;stroke-linejoin:miter;stroke-opacity:1;stroke-miterlimit:4;stroke-dasharray:none"
       d="m 338.67968,936.2004 c 0,0 -0.68462,3.7818 -0.34659,5.63209 0.22767,1.24627 1.55965,3.46591 1.55965,3.46591 0,0 0.14477,-3.3087 -0.0867,-4.93891 -0.20186,-1.42206 -1.12641,-4.15909 -1.12641,-4.15909 z"
       id="path4125"
       inkscape:connector-curvature="0"
       sodipodi:nodetypes="cacac" />
    <path
       sodipodi:nodetypes="caaaac"
       inkscape:connector-curvature="0"
       id="path4127"
       d="m 372.16005,897.76322 c 0,0 1.39285,1.29514 1.22538,2.08315 -0.21913,1.03108 -1.60494,1.42161 -2.5733,1.83807 -1.37614,0.59182 -2.94023,1.14015 -4.41137,0.85777 -0.66762,-0.12815 -1.54553,-0.44464 -1.71553,-1.10285 -0.15082,-0.58392 0.85776,-1.59299 0.85776,-1.59299"
       style="fill:none;stroke:#000000;stroke-width:1;stroke-linecap:butt;stroke-linejoin:miter;stroke-opacity:1;stroke-miterlimit:4;stroke-dasharray:none" />
    <path
       sodipodi:nodetypes="caaaaaac"
       inkscape:connector-curvature="0"
       id="path4129"
       d="m 364.67979,901.41571 c 0,0 -3.86049,2.57576 -5.50878,4.18995 -1.26701,1.24081 -3.12487,2.40244 -3.30852,4.1663 -0.0284,0.27253 0.16528,0.55045 0.36761,0.73523 0.74494,0.68028 1.81224,1.1765 2.81837,1.10284 0.32844,-0.0241 0.59222,-0.2954 0.85777,-0.49015 1.7947,-1.31626 3.45178,-2.84522 4.90152,-4.53392 1.04161,-1.21328 2.68679,-3.97421 2.68679,-3.97421"
       style="fill:none;stroke:#000000;stroke-width:1;stroke-linecap:butt;stroke-linejoin:miter;stroke-opacity:1;stroke-miterlimit:4;stroke-dasharray:none" />
    <path
       sodipodi:nodetypes="caaaaaaac"
       inkscape:connector-curvature="0"
       id="path4131"
       d="m 355.91692,910.08501 c 0,0 -1.22123,1.68248 -1.98728,2.37398 -2.6402,2.38327 -6.65058,3.17411 -8.83805,5.97868 -0.20791,0.26657 -0.41981,0.62308 -0.34659,0.95312 0.12385,0.55827 0.65951,1.06962 1.21307,1.21306 0.81418,0.21098 1.68669,-0.29238 2.42613,-0.69317 1.27798,-0.69269 2.10575,-2.02008 3.29261,-2.85937 1.81642,-1.28449 4.31444,-1.64143 5.80538,-3.29261 0.5296,-0.58651 0.95371,-2.17041 0.95371,-2.17041"
       style="fill:none;stroke:#000000;stroke-width:1;stroke-linecap:butt;stroke-linejoin:miter;stroke-opacity:1;stroke-miterlimit:4;stroke-dasharray:none" />
    <path
       sodipodi:nodetypes="caacaac"
       inkscape:connector-curvature="0"
       id="path4133"
       d="m 344.75021,919.41324 c 0,0 -3.04549,3.62737 -4.16429,5.69628 -1.13041,2.09038 -2.24742,4.31027 -2.51278,6.67186 -0.16602,1.47752 0.60654,4.41902 0.60654,4.41902 0,0 0.84143,-3.62495 1.6463,-5.28549 0.82463,-1.70133 2.26473,-3.03927 3.20596,-4.67897 1.02643,-1.78815 2.6429,-5.59236 2.6429,-5.59236"
       style="fill:none;stroke:#000000;stroke-width:1;stroke-linecap:butt;stroke-linejoin:miter;stroke-opacity:1;stroke-miterlimit:4;stroke-dasharray:none" />
    <path
       sodipodi:nodetypes="cacac"
       inkscape:connector-curvature="0"
       id="path4135"
       d="m 338.67968,936.2004 c 0,0 -0.68462,3.7818 -0.34659,5.63209 0.22767,1.24627 1.55965,3.46591 1.55965,3.46591 0,0 0.14477,-3.3087 -0.0867,-4.93891 -0.20186,-1.42206 -1.12641,-4.15909 -1.12641,-4.15909 z"
       style="fill:none;stroke:#000000;stroke-width:1;stroke-linecap:butt;stroke-linejoin:miter;stroke-opacity:1;stroke-miterlimit:4;stroke-dasharray:none" />
    <path
       style="fill:none;stroke:#000000;stroke-width:1;stroke-linecap:butt;stroke-linejoin:miter;stroke-opacity:1;stroke-miterlimit:4;stroke-dasharray:none"
       d="m 378.672,896.84933 c 0,0 -2.39922,1.48834 -2.73262,2.73262 -0.21248,0.79298 0.0569,1.79845 0.63745,2.37896 0.66841,0.66842 1.82615,0.97863 2.73923,0.73397 1.66965,-0.44739 2.9722,-2.08396 3.66681,-3.66681 0.27785,-0.63314 0.0864,-2.07246 0.0864,-2.07246"
       id="path4137"
       inkscape:connector-curvature="0"
       sodipodi:nodetypes="caaaac" />
    <path
       style="fill:none;stroke:#000000;stroke-width:1;stroke-linecap:butt;stroke-linejoin:miter;stroke-opacity:1;stroke-miterlimit:4;stroke-dasharray:none"
       d="m 375.86785,900.21325 c 0,0 -5.08418,3.65471 -7.26141,5.88257 -1.58746,1.62438 -4.58686,3.15967 -4.16629,5.39167 0.26461,1.40431 2.24851,2.26881 3.67614,2.20569 1.11005,-0.0491 1.8511,-1.23879 2.69584,-1.96062 2.45929,-2.10144 5.24472,-4.06067 6.86214,-6.86213 0.36604,-0.634 0.56843,-2.12142 0.56843,-2.12142"
       id="path4139"
       inkscape:connector-curvature="0"
       sodipodi:nodetypes="caaaaac" />
    <path
       style="fill:none;stroke:#000000;stroke-width:1;stroke-linecap:butt;stroke-linejoin:miter;stroke-opacity:1;stroke-miterlimit:4;stroke-dasharray:none"
       d="m 364.52742,911.79336 c -4.23623,3.57419 -8.47247,7.14837 -12.7087,10.72256 0.12254,0.36761 0.24508,0.73523 0.36762,1.10284 0.49015,0.44931 0.9803,0.89862 1.47045,1.34792 0.28593,-0.12254 0.57185,-0.24507 0.85777,-0.36761 4.09498,-3.72277 10.98685,-7.19128 11.88352,-11.2048"
       id="path4141"
       inkscape:connector-curvature="0"
       sodipodi:nodetypes="cccccc" />
    <path
       style="fill:none;stroke:#000000;stroke-width:1;stroke-linecap:butt;stroke-linejoin:miter;stroke-opacity:1;stroke-miterlimit:4;stroke-dasharray:none"
       d="m 351.86774,922.66296 c 0,0 -3.23379,2.20749 -4.33785,3.77418 -1.16225,1.64926 -1.60771,3.70976 -2.20569,5.63676 -0.90735,2.92399 0,0 -2.08314,8.94527 -0.0747,0.32073 0.82255,0.41161 0.9803,0.12254 1.72689,-3.16439 1.88213,-3.7202 2.94092,-5.51421 0.99043,-1.67819 2.22134,-3.20838 3.18598,-4.90153 1.11362,-1.95463 2.99225,-6.04922 2.99225,-6.04922"
       id="path4143"
       inkscape:connector-curvature="0"
       sodipodi:nodetypes="caassaac" />
    <path
       style="fill:none;stroke:#000000;stroke-width:1;stroke-linecap:butt;stroke-linejoin:miter;stroke-opacity:1;stroke-miterlimit:4;stroke-dasharray:none"
       d="m 343.94882,941.10193 c 0,0 0.48551,3.03174 1.12386,4.40671 0.999,2.15177 4.13296,5.79412 4.13296,5.79412 0,0 -2.01519,-3.3316 -2.90502,-5.06145 -0.86179,-1.67531 -2.3518,-5.13938 -2.3518,-5.13938 z"
       id="path4145"
       inkscape:connector-curvature="0"
       sodipodi:nodetypes="cacac" />
    <path
       style="fill:none;stroke:#000000;stroke-width:1;stroke-linecap:butt;stroke-linejoin:miter;stroke-opacity:1;stroke-miterlimit:4;stroke-dasharray:none"
       d="m 388.58016,901.43936 c 0,0 -2.29233,1.98592 -2.20569,3.30853 0.11353,1.73308 1.78646,3.36289 3.43107,3.92123 0.9861,0.33477 2.28276,0.0765 3.06345,-0.6127 0.58101,-0.5129 0.73523,-2.20569 0.73523,-2.20569"
       id="path4147"
       inkscape:connector-curvature="0"
       sodipodi:nodetypes="caaac" />
    <path
       style="fill:none;stroke:#000000;stroke-width:1;stroke-linecap:butt;stroke-linejoin:miter;stroke-opacity:1;stroke-miterlimit:4;stroke-dasharray:none"
       d="m 386.37447,905.60566 c 0,0 -2.13252,2.32844 -6.61706,4.65645 -0.42432,0.22027 0.1889,0.97668 0.49016,1.34792 1.12129,1.38179 2.79952,2.42024 4.53391,2.81837 0.76058,0.1746 1.73693,0.26419 2.32822,-0.24507 0.86326,-0.7435 0.32326,-2.30238 0.85777,-3.30853 0.43445,-0.81781 1.83807,-2.08315 1.83807,-2.08315"
       id="path4149"
       inkscape:connector-curvature="0"
       sodipodi:nodetypes="csaaaac" />
    <path
       style="fill:none;stroke:#000000;stroke-width:1;stroke-linecap:butt;stroke-linejoin:miter;stroke-opacity:1;stroke-miterlimit:4;stroke-dasharray:none"
       d="m 379.87995,911.48749 c 0,0 -2.41366,1.13571 -3.30852,2.08314 -1.2177,1.28924 -2.5733,4.65646 -2.5733,4.65646 l 6.73959,-6.12691"
       id="path4151"
       inkscape:connector-curvature="0"
       sodipodi:nodetypes="cacc" />
    <path
       style="fill:none;stroke:#000000;stroke-width:1;stroke-linecap:butt;stroke-linejoin:miter;stroke-opacity:1;stroke-miterlimit:4;stroke-dasharray:none"
       d="m 383.18848,914.06079 c -5.93973,5.36128 -6.34021,11.11823 -7.96498,16.78772 -1.20236,-6.382 -2.34237,-12.75956 5.39168,-18.50325"
       id="path4153"
       inkscape:connector-curvature="0"
       sodipodi:nodetypes="ccc" />
    <path
       style="fill:none;stroke:#000000;stroke-width:1;stroke-linecap:butt;stroke-linejoin:miter;stroke-opacity:1;stroke-miterlimit:4;stroke-dasharray:none"
       d="m 400.46635,908.05642 c 0,0 -3.30679,2.01021 -4.04375,3.67614 -0.1322,0.29884 -0.18824,0.71321 0,0.98031 0.69957,0.99271 2.21674,1.2423 3.43106,1.22538 0.7888,-0.011 1.71399,-0.24088 2.20569,-0.85776 0.87493,-1.09767 0.61269,-4.1663 0.61269,-4.1663"
       id="path4155"
       inkscape:connector-curvature="0"
       sodipodi:nodetypes="caaaac" />
    <path
       style="fill:none;stroke:#000000;stroke-width:1;stroke-linecap:butt;stroke-linejoin:miter;stroke-opacity:1;stroke-miterlimit:4;stroke-dasharray:none"
       d="m 396.17752,912.95795 -3.43107,3.67614 1.593,0.24507"
       id="path4157"
       inkscape:connector-curvature="0" />
    <path
       style="fill:none;stroke:#000000;stroke-width:1;stroke-linecap:butt;stroke-linejoin:miter;stroke-opacity:1;stroke-miterlimit:4;stroke-dasharray:none"
       d="m 396.54514,913.4481 c -4.78478,5.51422 -2.45578,11.02843 -2.45077,16.54264 0.67693,-5.50837 0.93294,-11.12196 5.39168,-15.68488"
       id="path4159"
       inkscape:connector-curvature="0"
       sodipodi:nodetypes="ccc" />
    <path
       style="fill:none;stroke:#000000;stroke-width:1;stroke-linecap:butt;stroke-linejoin:miter;stroke-opacity:1;stroke-miterlimit:4;stroke-dasharray:none"
       d="m 411.24971,909.77196 c 0,0 -0.24616,1.27652 0.12254,1.71553 0.64985,0.77379 2.00736,1.12192 2.94091,0.73523 0.22005,-0.0911 0.36762,-0.61269 0.36762,-0.61269"
       id="path4161"
       inkscape:connector-curvature="0"
       sodipodi:nodetypes="caac" />
    <path
       style="fill:none;stroke:#000000;stroke-width:1;stroke-linecap:butt;stroke-linejoin:miter;stroke-opacity:1;stroke-miterlimit:4;stroke-dasharray:none"
       d="m 411.00463,910.50719 c 0,0 -3.94965,2.02644 -4.16629,3.92121 -0.0335,0.29264 0.21921,0.61971 0.49015,0.73523 1.06869,0.45567 2.41488,-0.0496 3.43106,-0.61269 1.01178,-0.56068 2.32823,-2.5733 2.32823,-2.5733"
       id="path4163"
       inkscape:connector-curvature="0"
       sodipodi:nodetypes="caaac" />
    <path
       style="fill:none;stroke:#000000;stroke-width:1;stroke-linecap:butt;stroke-linejoin:miter;stroke-opacity:1;stroke-miterlimit:4;stroke-dasharray:none"
       d="m 406.34818,914.79602 c -2.51171,3.29588 -3.2815,7.24499 -3.18599,11.51858 1.28829,-3.8238 2.75762,-7.63331 6.37199,-11.27351"
       id="path4165"
       inkscape:connector-curvature="0"
       sodipodi:nodetypes="ccc" />
    <path
       style="fill:none;stroke:#000000;stroke-width:1;stroke-linecap:butt;stroke-linejoin:miter;stroke-opacity:1;stroke-miterlimit:4;stroke-dasharray:none"
       d="m 424.97398,913.57063 c 0,0 -1.09081,0.45283 -1.10285,1.10285 -0.0121,0.65001 0.57459,1.50857 1.593,1.71554 1.01841,0.20697 3.5536,-1.593 3.5536,-1.593"
       id="path4167"
       inkscape:connector-curvature="0"
       sodipodi:nodetypes="czzc" />
    <path
       style="fill:none;stroke:#000000;stroke-width:1;stroke-linecap:butt;stroke-linejoin:miter;stroke-opacity:1;stroke-miterlimit:4;stroke-dasharray:none"
       d="m 423.62606,914.55094 c 0,0 -4.24231,1.50357 -4.28884,3.30853 -0.01,0.37646 0.50127,0.61391 0.85777,0.73523 0.73571,0.25038 1.6012,0.15204 2.32823,-0.12254 1.16968,-0.44176 2.94091,-2.32823 2.94091,-2.32823"
       id="path4169"
       inkscape:connector-curvature="0"
       sodipodi:nodetypes="caaac" />
    <path
       style="fill:none;stroke:#000000;stroke-width:1;stroke-linecap:butt;stroke-linejoin:miter;stroke-opacity:1;stroke-miterlimit:4;stroke-dasharray:none"
       d="m 419.5823,916.87916 c -3.14945,3.79304 -4.85572,7.76648 -5.39168,11.8862 1.4691,-3.21022 1.95876,-6.22456 6.49453,-10.04812"
       id="path4171"
       inkscape:connector-curvature="0"
       sodipodi:nodetypes="ccc" />
    <path
       style="fill:none;stroke:#000000;stroke-width:1;stroke-linecap:butt;stroke-linejoin:miter;stroke-opacity:1;stroke-miterlimit:4;stroke-dasharray:none"
       d="m 441.51662,917.73693 c 0,0 -1.29574,0.77629 -1.96061,0.6127 -0.39264,-0.0966 -0.84224,-0.45371 -0.85777,-0.85777 -0.0144,-0.37631 1.07871,-0.70337 0.73523,-0.85777 -1.72078,-0.77354 -5.32961,1.90238 -6.1269,2.94091 -0.24997,0.32561 -0.1605,0.92807 0.12253,1.22539 0.56956,0.59831 1.65352,0.58388 2.45077,0.36761 1.56994,-0.42586 3.79868,-3.06345 3.79868,-3.06345"
       id="path4173"
       inkscape:connector-curvature="0"
       sodipodi:nodetypes="caassaac" />
    <path
       style="fill:none;stroke:#000000;stroke-width:1;stroke-linecap:butt;stroke-linejoin:miter;stroke-opacity:1;stroke-miterlimit:4;stroke-dasharray:none"
       d="m 433.18403,920.06516 c -3.1223,2.40091 -3.57503,6.13661 -4.90153,9.43543 2.18535,-1.88428 3.83923,-2.40891 7.22976,-8.21005"
       id="path4175"
       inkscape:connector-curvature="0"
       sodipodi:nodetypes="ccc" />
    <path
       style="fill:none;stroke:#000000;stroke-width:1.22254360000000006;stroke-linecap:butt;stroke-linejoin:round;stroke-miterlimit:4;stroke-opacity:1;stroke-dasharray:none"
       d="m 59.018935,943.50351 41.588315,-64.70748 77.95898,-2.22678 2.22677,9.955 -59.33702,63.5286 z"
       id="path3054"
       inkscape:connector-curvature="0"
       sodipodi:nodetypes="cccccc" />
    <path
       style="fill:none;stroke:#000000;stroke-width:1.22254360000000006;stroke-linecap:butt;stroke-linejoin:miter;stroke-miterlimit:4;stroke-opacity:1;stroke-dasharray:none"
       d="m 92.81353,855.5677 28.64245,94.48515"
       id="path3056"
       inkscape:connector-curvature="0"
       sodipodi:nodetypes="cc" />
    <path
       style="fill:none;stroke:#000000;stroke-width:0.61127180000000003px;stroke-linecap:butt;stroke-linejoin:miter;stroke-opacity:1"
       d="m 87.893422,858.44457 c 0.198107,0.97253 -0.394368,2.83071 0.594321,2.91759 4.13309,0.36315 8.353726,-0.56089 12.318677,-1.78297 1.47502,-0.45463 2.30525,-2.05311 3.45788,-3.07967"
       id="path3855"
       inkscape:connector-curvature="0"
       sodipodi:nodetypes="cssc" />
    <path
       style="font-size:medium;font-style:normal;font-variant:normal;font-weight:normal;font-stretch:normal;text-indent:0;text-align:start;text-decoration:none;line-height:normal;letter-spacing:normal;word-spacing:normal;text-transform:none;direction:ltr;block-progression:tb;writing-mode:lr-tb;text-anchor:start;baseline-shift:baseline;color:#000000;fill:#ffffff;fill-opacity:1;stroke:#000000;stroke-width:1.22254360000000006;stroke-opacity:1;marker:none;visibility:visible;display:inline;overflow:visible;enable-background:accumulate;font-family:Sans;-inkscape-font-specification:Sans"
       d="m 181.27873,885.93992 -1.20344,0.43935 c 9.574,35.73065 22.34963,58.52927 22.34963,58.52927 0,0 1.13246,0.53324 1.03967,-0.60416 0,0 -12.69141,-22.93068 -22.18586,-58.36446 z"
       id="path3863"
       inkscape:connector-curvature="0"
       sodipodi:nodetypes="ccccc" />
    <path
       style="fill:none;stroke:#000000;stroke-width:1.22254360000000006;stroke-linecap:round;stroke-linejoin:round;stroke-miterlimit:4;stroke-opacity:1;stroke-dasharray:none"
       d="m 178.56623,876.56925 -2.98856,-11.15347 c 0,0 24.58079,1.08273 25.83131,14.80261 0.68753,7.54296 -15.88461,12.96703 -15.88461,12.96703"
       id="path3869"
       inkscape:connector-curvature="0"
       sodipodi:nodetypes="ccsc" />
    <g
       style="stroke:#000000;stroke-opacity:1"
       id="g3873"
       transform="matrix(0.61127179,0,0,0.61127179,-17.193576,815.70097)">
      <path
         sodipodi:type="arc"
         style="fill:none;stroke:#000000;stroke-width:3;stroke-miterlimit:4;stroke-opacity:1;stroke-dasharray:none"
         id="path3861"
         sodipodi:cx="127.27922"
         sodipodi:cy="211.61223"
         sodipodi:rx="72.124893"
         sodipodi:ry="72.124893"
         d="m 199.40411,211.61223 c 0,39.83348 -32.29141,72.12489 -72.12489,72.12489 -39.833478,0 -72.124893,-32.29141 -72.124893,-72.12489 0,-39.83348 32.291415,-72.12489 72.124893,-72.12489 39.83348,0 72.12489,32.29141 72.12489,72.12489 z"
         transform="translate(232.31922,-2.3864854)" />
      <path
         transform="matrix(0.0822894,0,0,0.0822894,349.12471,191.8123)"
         d="m 199.40411,211.61223 c 0,39.83348 -32.29141,72.12489 -72.12489,72.12489 -39.833478,0 -72.124893,-32.29141 -72.124893,-72.12489 0,-39.83348 32.291415,-72.12489 72.124893,-72.12489 39.83348,0 72.12489,32.29141 72.12489,72.12489 z"
         sodipodi:ry="72.124893"
         sodipodi:rx="72.124893"
         sodipodi:cy="211.61223"
         sodipodi:cx="127.27922"
         id="path3871"
         style="fill:none;stroke:#000000;stroke-width:12.15223312000000000;stroke-miterlimit:4;stroke-opacity:1;stroke-dasharray:none"
         sodipodi:type="arc" />
    </g>
    <path
       sodipodi:type="arc"
       style="fill:none;stroke:#000000;stroke-width:3;stroke-miterlimit:4;stroke-opacity:1;stroke-dasharray:none"
       id="path3879"
       sodipodi:cx="127.27922"
       sodipodi:cy="211.61223"
       sodipodi:rx="72.124893"
       sodipodi:ry="72.124893"
       d="m 199.40411,211.61223 a 72.124893,72.124893 0 1 1 -144.249783,0 72.124893,72.124893 0 1 1 144.249783,0 z"
       transform="matrix(0.61127179,0,0,0.61127179,-18.22099,814.24217)" />
    <path
       transform="matrix(0.09974229,0,0,0.09974229,46.886088,922.48808)"
       d="m 199.40411,211.61223 a 72.124893,72.124893 0 1 1 -144.249783,0 72.124893,72.124893 0 1 1 144.249783,0 z"
       sodipodi:ry="72.124893"
       sodipodi:rx="72.124893"
       sodipodi:cy="211.61223"
       sodipodi:cx="127.27922"
       id="path3881"
       style="fill:none;stroke:#000000;stroke-width:12.25702380999999974;stroke-miterlimit:4;stroke-opacity:1;stroke-dasharray:none"
       sodipodi:type="arc" />
    <path
       sodipodi:type="arc"
       style="fill:none;stroke:#000000;stroke-width:7.37966870999999980;stroke-miterlimit:4;stroke-opacity:1;stroke-dasharray:none"
       id="path3885"
       sodipodi:cx="127.27922"
       sodipodi:cy="211.61223"
       sodipodi:rx="72.124893"
       sodipodi:ry="72.124893"
       d="m 199.40411,211.61223 a 72.124893,72.124893 0 1 1 -144.249783,0 72.124893,72.124893 0 1 1 144.249783,0 z"
       transform="matrix(0.16566375,0,0,0.16566375,99.533314,913.80508)" />
    <path
       style="fill:none;stroke:#000000;stroke-width:0.61127180000000003px;stroke-linecap:butt;stroke-linejoin:miter;stroke-opacity:1"
       d="m 58.893526,936.13343 62.947884,0.55039"
       id="path3887"
       inkscape:connector-curvature="0"
       sodipodi:nodetypes="cc" />
    <path
       style="fill:none;stroke:#000000;stroke-width:0.61127180000000003px;stroke-linecap:butt;stroke-linejoin:miter;stroke-opacity:1"
       d="M 119.93118,961.07746 58.320459,950.97969"
       id="path3889"
       inkscape:connector-curvature="0"
       sodipodi:nodetypes="cc" />
    <path
       style="fill:none;stroke:#000000;stroke-width:1.22254360000000006;stroke-linecap:round;stroke-linejoin:round;stroke-miterlimit:4;stroke-opacity:1;stroke-dasharray:none"
       d="m 121.45598,950.05285 13.77011,15.52647"
       id="path4354"
       inkscape:connector-curvature="0"
       sodipodi:nodetypes="cc" />
    <path
       style="fill:none;stroke:#000000;stroke-width:1.22254360000000006;stroke-linecap:round;stroke-linejoin:round;stroke-miterlimit:4;stroke-opacity:1;stroke-dasharray:none"
       d="m 131.29997,965.35473 7.18245,-0.15282"
       id="path4356"
       inkscape:connector-curvature="0"
       sodipodi:nodetypes="cc" />
    <path
       style="fill:#000000;fill-opacity:1;stroke:#000000;stroke-width:0.61127180000000003;stroke-opacity:1"
       d="m 80.380684,853.94128 c 13.855789,1.84525 15.754662,0.93739 32.873296,1.57239 2.42075,0.57515 2.50575,0.0671 2.12201,1.52763 -0.33946,1.29204 -3.9296,1.20071 -3.9296,1.20071 0,0 -4.24362,-0.85019 -6.38561,-0.76409 -3.48656,0.14015 -10.260635,2.07396 -10.260635,2.07396 0,0 -5.312508,0.77909 -7.913781,0.32747 -2.146903,-0.37273 -4.968631,-0.56892 -6.058144,-2.456 -1.028361,-1.78118 -2.064723,-3.69744 -0.447536,-3.48207 z"
       id="path3830"
       inkscape:connector-curvature="0"
       sodipodi:nodetypes="scscscass" />
    <path
       sodipodi:nodetypes="cc"
       inkscape:connector-curvature="0"
       id="path21627"
       d="M 120.7147,948.83031 106.94459,933.30384"
       style="fill:none;stroke:#000000;stroke-width:1.22254360000000006;stroke-linecap:round;stroke-linejoin:round;stroke-miterlimit:4;stroke-opacity:1;stroke-dasharray:none" />
    <path
       sodipodi:nodetypes="cc"
       inkscape:connector-curvature="0"
       id="path21629"
       d="m 110.87071,933.52843 -7.18245,0.15282"
       style="fill:none;stroke:#000000;stroke-width:1.22254360000000006;stroke-linecap:round;stroke-linejoin:round;stroke-miterlimit:4;stroke-opacity:1;stroke-dasharray:none" />
  </g>
</svg>
