<?xml version="1.0" encoding="UTF-8" standalone="no"?>
<!-- Created with Inkscape (http://www.inkscape.org/) -->

<svg
   xmlns:dc="http://purl.org/dc/elements/1.1/"
   xmlns:cc="http://creativecommons.org/ns#"
   xmlns:rdf="http://www.w3.org/1999/02/22-rdf-syntax-ns#"
   xmlns:svg="http://www.w3.org/2000/svg"
   xmlns="http://www.w3.org/2000/svg"
   xmlns:xlink="http://www.w3.org/1999/xlink"
   xmlns:sodipodi="http://sodipodi.sourceforge.net/DTD/sodipodi-0.dtd"
   xmlns:inkscape="http://www.inkscape.org/namespaces/inkscape"
   width="744.09448819"
   height="1052.3622047"
   id="svg2"
   version="1.1"
   inkscape:version="0.48.2 r9819"
   sodipodi:docname="sketches.svg">
  <defs
     id="defs4">
    <inkscape:path-effect
       effect="spiro"
       id="path-effect4013"
       is_visible="true" />
  </defs>
  <sodipodi:namedview
     id="base"
     pagecolor="#ffffff"
     bordercolor="#666666"
     borderopacity="1.0"
     inkscape:pageopacity="0.0"
     inkscape:pageshadow="2"
     inkscape:zoom="1"
     inkscape:cx="120.29382"
     inkscape:cy="534.90608"
     inkscape:document-units="px"
     inkscape:current-layer="layer1"
     showgrid="false"
     inkscape:snap-bbox="true"
     inkscape:object-nodes="true"
     inkscape:snap-smooth-nodes="false"
     inkscape:snap-midpoints="false"
     inkscape:snap-object-midpoints="false"
     inkscape:snap-center="false"
     inkscape:object-paths="false"
     inkscape:snap-page="true"
     inkscape:snap-nodes="true"
     inkscape:window-width="1366"
     inkscape:window-height="720"
     inkscape:window-x="1"
     inkscape:window-y="0"
     inkscape:window-maximized="0" />
  <metadata
     id="metadata7">
    <rdf:RDF>
      <cc:Work
         rdf:about="">
        <dc:format>image/svg+xml</dc:format>
        <dc:type
           rdf:resource="http://purl.org/dc/dcmitype/StillImage" />
        <dc:title></dc:title>
      </cc:Work>
    </rdf:RDF>
  </metadata>
  <g
     inkscape:groupmode="layer"
     id="layer2"
     inkscape:label="bg"
     style="display:none"
     sodipodi:insensitive="true">
    <image
       y="0"
       x="0"
       id="image3988"
       xlink:href="file:///Users/sdecaste/Downloads/Crangon_crangon.png"
       height="262.76654"
       width="420.23846"
       style="opacity:0.59913791" />
  </g>
  <g
     inkscape:label="Layer 1"
     inkscape:groupmode="layer"
     id="layer1">
    <path
       style="fill:none;stroke:#000000;stroke-width:2;stroke-linecap:butt;stroke-linejoin:round;stroke-miterlimit:4;stroke-opacity:1;stroke-dasharray:none"
       d="m 68.580159,545.24762 68.035711,-105.85714 127.53572,-3.64286 3.64285,16.28572 -97.07143,103.92857 z"
       id="path3054"
       inkscape:connector-curvature="0"
       sodipodi:nodetypes="cccccc" />
    <path
       style="fill:none;stroke:#000000;stroke-width:2;stroke-linecap:butt;stroke-linejoin:miter;stroke-miterlimit:4;stroke-opacity:1;stroke-dasharray:none"
       d="m 123.86587,401.39048 46.85714,154.57143"
       id="path3056"
       inkscape:connector-curvature="0"
       sodipodi:nodetypes="cc" />
    <path
       style="fill:#000000;fill-opacity:1;stroke:none"
       d="m 103.52656,398.72977 c 22.66715,3.0187 25.77358,1.5335 53.77853,2.57233 3.96019,0.9409 4.09923,0.10977 3.47147,2.4991 -0.55534,2.11369 -6.42857,1.96428 -6.42857,1.96428 0,0 -6.94228,-1.39085 -10.44643,-1.25 -5.70379,0.22927 -16.78572,3.39286 -16.78572,3.39286 0,0 -8.69091,1.27453 -12.94642,0.53572 -3.51219,-0.60977 -8.12835,-0.93072 -9.91072,-4.01786 -1.68233,-2.91389 -3.37775,-6.04876 -0.73214,-5.69643 z"
       id="path3830"
       inkscape:connector-curvature="0"
       sodipodi:nodetypes="scscscass" />
    <path
       style="fill:none;stroke:#000000;stroke-width:1px;stroke-linecap:butt;stroke-linejoin:miter;stroke-opacity:1"
       d="m 115.8169,406.09686 c 0.32409,1.59099 -0.64516,4.63085 0.97227,4.77297 6.76146,0.5941 13.66614,-0.91758 20.15254,-2.91681 2.41303,-0.74375 3.77123,-3.35876 5.65685,-5.03814"
       id="path3855"
       inkscape:connector-curvature="0"
       sodipodi:nodetypes="cssc" />
    <path
       style="font-size:medium;font-style:normal;font-variant:normal;font-weight:normal;font-stretch:normal;text-indent:0;text-align:start;text-decoration:none;line-height:normal;letter-spacing:normal;word-spacing:normal;text-transform:none;direction:ltr;block-progression:tb;writing-mode:lr-tb;text-anchor:start;baseline-shift:baseline;color:#000000;fill:#000000;fill-opacity:1;stroke:none;stroke-width:2;marker:none;visibility:visible;display:inline;overflow:visible;enable-background:accumulate;font-family:Sans;-inkscape-font-specification:Sans"
       d="m 268.58906,451.07741 -1.96875,0.71875 c 15.66243,58.45297 36.5625,95.75 36.5625,95.75 0,0 1.85264,0.87234 1.70083,-0.98836 0,0 -20.76229,-37.51308 -36.29458,-95.48039 z"
       id="path3863"
       inkscape:connector-curvature="0"
       sodipodi:nodetypes="ccccc" />
    <path
       style="fill:none;stroke:#000000;stroke-width:2;stroke-linecap:round;stroke-linejoin:round;stroke-miterlimit:4;stroke-opacity:1;stroke-dasharray:none"
       d="m 264.15159,435.74762 -4.88909,-18.24633 c 0,0 40.21253,1.77127 42.25831,24.21608 1.12474,12.33979 -25.98617,21.2132 -25.98617,21.2132"
       id="path3869"
       inkscape:connector-curvature="0"
       sodipodi:nodetypes="ccsc" />
    <g
       id="g3873"
       transform="translate(-56.098441,336.17116)">
      <path
         sodipodi:type="arc"
         style="fill:none;stroke:#000000;stroke-width:3;stroke-miterlimit:4;stroke-opacity:1;stroke-dasharray:none"
         id="path3861"
         sodipodi:cx="127.27922"
         sodipodi:cy="211.61223"
         sodipodi:rx="72.124893"
         sodipodi:ry="72.124893"
         d="m 199.40411,211.61223 c 0,39.83348 -32.29141,72.12489 -72.12489,72.12489 -39.833478,0 -72.124893,-32.29141 -72.124893,-72.12489 0,-39.83348 32.291415,-72.12489 72.124893,-72.12489 39.83348,0 72.12489,32.29141 72.12489,72.12489 z"
         transform="translate(232.31922,-2.3864854)" />
      <path
         transform="matrix(0.0822894,0,0,0.0822894,349.12471,191.8123)"
         d="m 199.40411,211.61223 c 0,39.83348 -32.29141,72.12489 -72.12489,72.12489 -39.833478,0 -72.124893,-32.29141 -72.124893,-72.12489 0,-39.83348 32.291415,-72.12489 72.124893,-72.12489 39.83348,0 72.12489,32.29141 72.12489,72.12489 z"
         sodipodi:ry="72.124893"
         sodipodi:rx="72.124893"
         sodipodi:cy="211.61223"
         sodipodi:cx="127.27922"
         id="path3871"
         style="fill:none;stroke:#000000;stroke-width:12.15223312;stroke-miterlimit:4;stroke-opacity:1;stroke-dasharray:none"
         sodipodi:type="arc" />
    </g>
    <path
       sodipodi:type="arc"
       style="fill:none;stroke:#000000;stroke-width:3;stroke-miterlimit:4;stroke-opacity:1;stroke-dasharray:none"
       id="path3879"
       sodipodi:cx="127.27922"
       sodipodi:cy="211.61223"
       sodipodi:rx="72.124893"
       sodipodi:ry="72.124893"
       d="m 199.40411,211.61223 a 72.124893,72.124893 0 1 1 -144.249783,0 72.124893,72.124893 0 1 1 144.249783,0 z"
       transform="translate(-57.779221,333.78467)" />
    <path
       transform="matrix(0.16317175,0,0,0.16317175,48.731629,510.86777)"
       d="m 199.40411,211.61223 a 72.124893,72.124893 0 1 1 -144.249783,0 72.124893,72.124893 0 1 1 144.249783,0 z"
       sodipodi:ry="72.124893"
       sodipodi:rx="72.124893"
       sodipodi:cy="211.61223"
       sodipodi:cx="127.27922"
       id="path3881"
       style="fill:none;stroke:#000000;stroke-width:12.25702381;stroke-miterlimit:4;stroke-opacity:1;stroke-dasharray:none"
       sodipodi:type="arc" />
    <path
       sodipodi:type="arc"
       style="fill:none;stroke:#000000;stroke-width:7.37966871;stroke-miterlimit:4;stroke-opacity:1;stroke-dasharray:none"
       id="path3885"
       sodipodi:cx="127.27922"
       sodipodi:cy="211.61223"
       sodipodi:rx="72.124893"
       sodipodi:ry="72.124893"
       d="m 199.40411,211.61223 a 72.124893,72.124893 0 1 1 -144.249783,0 72.124893,72.124893 0 1 1 144.249783,0 z"
       transform="matrix(0.27101488,0,0,0.27101488,134.85899,496.66296)" />
    <path
       style="fill:none;stroke:#000000;stroke-width:1px;stroke-linecap:butt;stroke-linejoin:miter;stroke-opacity:1"
       d="m 68.374999,533.19066 102.978551,0.9004"
       id="path3887"
       inkscape:connector-curvature="0"
       sodipodi:nodetypes="cc" />
    <path
       style="fill:none;stroke:#000000;stroke-width:1px;stroke-linecap:butt;stroke-linejoin:miter;stroke-opacity:1"
       d="M 168.22855,573.99744 67.437499,557.47815"
       id="path3889"
       inkscape:connector-curvature="0"
       sodipodi:nodetypes="cc" />
    <g
       id="g4268">
      <path
         sodipodi:nodetypes="caassssac"
         inkscape:connector-curvature="0"
         id="path3993"
         d="m 204.70711,78.246069 c -1.86372,-2.007537 -31.42745,-4.392166 -47.06066,-2.795495 -4.61427,0.471271 -8.85174,2.915128 -13.43674,3.616117 -5.77107,0.882324 -11.96605,-1.201628 -17.5,0.709708 -2.72447,0.940989 4.87714,2.780743 3.43674,5.424175 -3.22158,5.912249 -18.6854,11.526227 -11.75,15.750006 14.8375,9.03627 26.14091,18.85815 42.375,21.375 7.50059,1.16285 15.13663,-4.70952 22.875,-6.375 6.71727,-1.44572 16.26577,2.38191 20.375,-3.125"
         style="fill:none;stroke:#000000;stroke-width:1px;stroke-linecap:butt;stroke-linejoin:miter;stroke-opacity:1" />
      <path
         transform="matrix(0.24719845,0,0,0.24719845,95.311548,61.442162)"
         sodipodi:open="true"
         sodipodi:end="7.4421743"
         sodipodi:start="1.1618676"
         d="m 121.11053,108.68922 a 10.827573,10.120466 0 1 1 0.0286,-0.0116"
         sodipodi:ry="10.120466"
         sodipodi:rx="10.827573"
         sodipodi:cy="99.403214"
         sodipodi:cx="116.8052"
         id="path3999"
         style="fill:#000000;stroke:none;stroke-width:4.04533280999999967;stroke-linecap:round;stroke-linejoin:miter;stroke-miterlimit:4;stroke-opacity:1;stroke-dasharray:none;fill-opacity:1"
         sodipodi:type="arc" />
      <path
         sodipodi:type="arc"
         style="fill:#000000;fill-opacity:1;stroke:none"
         id="path4001"
         sodipodi:cx="116.8052"
         sodipodi:cy="99.403214"
         sodipodi:rx="10.827573"
         sodipodi:ry="10.120466"
         d="m 121.11053,108.68922 a 10.827573,10.120466 0 0 1 -8.70605,-18.532867 l 4.40072,9.246861 z"
         sodipodi:start="1.1618676"
         sodipodi:end="4.2938392"
         transform="matrix(-0.04487544,0.21230948,-0.21230948,-0.04487544,154.38739,58.781397)" />
      <path
         sodipodi:nodetypes="aaasaa"
         inkscape:connector-curvature="0"
         id="path4003"
         d="m 121.125,87.362185 c -1.4922,-0.625611 -3.54241,-0.07694 -4.75,1 -1.37672,1.227771 -2.33333,3.5 -1.75,5.25 0.41667,1.25 2.50592,3.337406 3.25,2.25 1.61802,-2.364587 4.99458,-2.883548 5.25,-5.375 0.12613,-1.230287 -0.85945,-2.64682 -2,-3.125 z"
         style="fill:none;stroke:#000000;stroke-width:1px;stroke-linecap:butt;stroke-linejoin:miter;stroke-opacity:1" />
      <path
         sodipodi:nodetypes="ssassas"
         inkscape:connector-curvature="0"
         id="path4005"
         d="m 115.125,94.487185 c -10.62067,3.396268 -10.51258,3.285582 -18.5,5.625005 -1.120345,0.32814 1.608168,1.77531 2,2.875 0.182343,0.51175 -0.386144,1.80904 0.125,1.625 6.11581,-2.20204 9.79305,-3.05821 17,-5.750005 1.01785,-0.380168 1.968,-1.68556 1.75,-2.75 -0.19246,-0.939733 -1.46134,-1.917169 -2.375,-1.625 z"
         style="fill:none;stroke:#000000;stroke-width:1px;stroke-linecap:butt;stroke-linejoin:miter;stroke-opacity:1" />
      <path
         sodipodi:nodetypes="cssccc"
         inkscape:connector-curvature="0"
         id="path4015"
         d="m 116.93778,87.780147 c 0,0 -5.07817,-3.834932 -8.04334,-3.800699 -6.25468,0.07221 -26.314827,4.563848 -22.715801,6.805903 9.670303,6.024227 23.422911,5.126524 23.422911,5.126524 l 5.03814,-1.325825 c -0.21785,-2.350625 -0.26072,-4.686667 2.29809,-6.805903 z"
         style="fill:none;stroke:#000000;stroke-width:1px;stroke-linecap:butt;stroke-linejoin:miter;stroke-opacity:1" />
      <path
         sodipodi:nodetypes="ccscc"
         inkscape:connector-curvature="0"
         id="path4017"
         d="m 119.625,80.612185 -11.875,-3 c 0,0 -23.172566,-11.524839 -15.5,-10.75 11.28946,1.140103 23.20588,2.132355 32.5,10.125 -6.48509,-0.802931 -4.46229,1.976403 -5.125,3.625 z"
         style="fill:none;stroke:#000000;stroke-width:1px;stroke-linecap:butt;stroke-linejoin:miter;stroke-opacity:1" />
      <path
         inkscape:connector-curvature="0"
         id="path4037"
         d="m 111.72287,84.951719 c 0,0 -4.02167,-4.419417 3.0494,-3.049398"
         style="fill:none;stroke:#000000;stroke-width:1px;stroke-linecap:butt;stroke-linejoin:miter;stroke-opacity:1" />
      <path
         inkscape:connector-curvature="0"
         id="path4039"
         d="m 114.37452,82.079098 c -4.02167,-2.563262 -0.97227,-2.519068 -0.97227,-2.519068"
         style="fill:none;stroke:#000000;stroke-width:1px;stroke-linecap:butt;stroke-linejoin:miter;stroke-opacity:1" />
      <path
         inkscape:connector-curvature="0"
         id="path4041"
         d="m 116.09809,86.100768 c -5.03813,-2.298097 0.0884,-2.695845 0.0884,-2.695845 0,0 -3.66811,-3.181981 1.32583,-2.65165"
         style="fill:none;stroke:#000000;stroke-width:1px;stroke-linecap:butt;stroke-linejoin:miter;stroke-opacity:1" />
      <path
         inkscape:connector-curvature="0"
         id="path4043"
         d="m 119.63363,87.028846 c -5.43589,-3.137787 0.53033,-3.093593 0.53033,-3.093593 0,0 -2.91682,-1.811961 -1.98874,-2.695844 0.92808,-0.883884 4.02167,0.08839 4.02167,0.08839"
         style="fill:none;stroke:#000000;stroke-width:1px;stroke-linecap:butt;stroke-linejoin:miter;stroke-opacity:1" />
      <path
         id="path4045"
         d="M 105.71875 79.21875 C 99.483228 79.26795 90.873811 79.676991 89.4375 81.5 C 87.139403 84.416814 95.335237 81.35697 98.28125 81.40625 C 102.35039 81.474315 110.5 81.9375 110.5 81.9375 L 112.34375 79.28125 C 112.34375 79.28125 109.46006 79.18923 105.71875 79.21875 z "
         style="fill:none;stroke:#000000;stroke-width:1px;stroke-linecap:butt;stroke-linejoin:miter;stroke-opacity:1" />
      <path
         style="fill:none;stroke:#000000;stroke-width:1px;stroke-linecap:butt;stroke-linejoin:miter;stroke-opacity:1"
         d="m 112.16481,79.471642 c 0,0 -9.01655,-0.185141 -13.523415,-0.08839 -2.978699,0.06395 -11.22532,3.358757 -8.927223,0.441943 2.298097,-2.916815 17.412508,-2.209708 17.412508,-2.209708"
         id="path4047"
         inkscape:connector-curvature="0"
         sodipodi:nodetypes="casc" />
      <path
         sodipodi:nodetypes="ccc"
         inkscape:connector-curvature="0"
         id="path4061"
         d="M 96.873629,101.65712 C 45.133346,171.88113 105.19036,217.93276 200.5,256.36219 68.964364,202.52233 66.560888,152.84802 99.0625,104.29968"
         style="fill:none;stroke:#000000;stroke-width:1px;stroke-linecap:butt;stroke-linejoin:miter;stroke-opacity:1" />
      <path
         sodipodi:nodetypes="cssc"
         inkscape:connector-curvature="0"
         id="path4063"
         d="m 121.44559,102.89455 c 0,0 -7.24334,-0.61196 -13.96536,1.23744 -1.49131,0.4103 1.46613,3.68925 3.0052,3.53554 6.07983,-0.6072 15.73313,-1.06066 15.73313,-1.06066"
         style="fill:none;stroke:#000000;stroke-width:1px;stroke-linecap:butt;stroke-linejoin:miter;stroke-opacity:1" />
      <path
         sodipodi:nodetypes="cccc"
         inkscape:connector-curvature="0"
         id="path4065"
         d="m 106.9499,105.36943 c -4.47834,2.18025 -8.956685,4.36049 -13.435028,6.54074 -0.412479,1.41421 -0.824958,2.82843 -1.237437,4.24264 5.833632,-2.65165 11.667265,-5.3033 17.500895,-7.95495"
         style="fill:none;stroke:#000000;stroke-width:1px;stroke-linecap:butt;stroke-linejoin:miter;stroke-opacity:1" />
      <path
         sodipodi:nodetypes="cssc"
         inkscape:connector-curvature="0"
         id="path4067"
         d="m 133.11285,110.67273 c 0,0 -8.75315,-1.0869 -12.9047,-1.59099 -2.69653,-0.32742 -0.80407,7.08082 1.76777,7.95495 6.81771,2.31724 21.38998,-0.17678 21.38998,-0.17678"
         style="fill:none;stroke:#000000;stroke-width:1px;stroke-linecap:butt;stroke-linejoin:miter;stroke-opacity:1" />
      <path
         sodipodi:nodetypes="cssc"
         inkscape:connector-curvature="0"
         id="path4069"
         d="m 120.20815,109.25852 c 0,0 -5.66933,-0.72643 -5.65685,0 0.0389,2.26658 -0.16397,4.80985 1.06066,6.71751 0.28329,0.44129 5.3033,0 5.3033,0"
         style="fill:none;stroke:#000000;stroke-width:1px;stroke-linecap:butt;stroke-linejoin:miter;stroke-opacity:1" />
      <path
         sodipodi:nodetypes="cccsc"
         inkscape:connector-curvature="0"
         id="path4071"
         d="m 114.02097,111.02628 c -9.52535,1.71239 -16.814091,6.65545 -22.097088,14.49569 l 1.944543,-6.36396 c -3.072199,4.81751 -12.475458,10.98276 0,14.14214 7.859985,1.99052 20.587875,-18.493 21.036425,-17.14734"
         style="fill:none;stroke:#000000;stroke-width:1px;stroke-linecap:butt;stroke-linejoin:miter;stroke-opacity:1" />
      <path
         sodipodi:nodetypes="cac"
         inkscape:connector-curvature="0"
         id="path4073"
         d="m 126,76.612186 c 0,0 -3.51125,-8.619821 -7,-8 -1.1428,0.203034 -1.25,3.25 -1.25,3.25"
         style="fill:none;stroke:#000000;stroke-width:1px;stroke-linecap:butt;stroke-linejoin:miter;stroke-opacity:1" />
      <path
         sodipodi:nodetypes="ccc"
         inkscape:connector-curvature="0"
         id="path4075"
         d="M 118.5,68.862186 C 110.26288,27.126233 218.86941,53.317081 299,62.362186 216.83854,52.854095 103.58351,25.434967 117.35937,71.190309"
         style="fill:none;stroke:#000000;stroke-width:1px;stroke-linecap:butt;stroke-linejoin:round;stroke-opacity:1" />
      <path
         sodipodi:nodetypes="cssc"
         inkscape:connector-curvature="0"
         id="path4077"
         d="m 221.25,129.61219 c 0,0 -12.58379,0.57667 -14.5,-4.5 -5.02883,-13.32302 -1.94336,-34.296706 -2.5,-45.000004 -0.37349,-7.181677 20.75,3.09857 20.75,3.5"
         style="fill:none;stroke:#000000;stroke-width:1px;stroke-linecap:butt;stroke-linejoin:miter;stroke-opacity:1" />
      <path
         sodipodi:nodetypes="aaaaaaaaaaaa"
         inkscape:connector-curvature="0"
         id="path4081"
         d="m 225.25,84.112186 c -3.08659,5.956505 -0.69686,13.473541 -2.25,20.000004 -1.27579,5.36101 -5.87201,9.99063 -5.75,15.5 0.0901,4.06956 1.61607,8.65232 4.75,11.25 2.42872,2.01314 6.23301,2.92149 9.25,2 2.76199,-0.8436 4.68287,-3.67989 6,-6.25 1.46854,-2.86556 1.53171,-6.28746 1.75,-9.5 0.24319,-3.57895 -1.26395,-7.24508 -0.5,-10.75 1.31759,-6.04498 9.70745,-10.432066 8.5,-16.500004 -0.55391,-2.783655 -3.92827,-4.299262 -6.5,-5.5 -3.98482,-1.860509 -8.77064,-3.455332 -13,-2.25 -0.96504,0.275029 -1.78832,1.109048 -2.25,2 z"
         style="fill:none;stroke:#000000;stroke-width:1px;stroke-linecap:butt;stroke-linejoin:miter;stroke-opacity:1" />
      <path
         sodipodi:nodetypes="caaaac"
         inkscape:connector-curvature="0"
         id="path4083"
         d="m 247,89.612186 c 0,0 15.0028,5.157495 16.75,11.750004 2.10097,7.92735 -8.97843,14.19135 -10.5,22.25 -0.9143,4.84239 4.36467,11.14949 1,14.75 -1.65004,1.76569 -4.90229,0.57317 -7.25,0 -4.74333,-1.15804 -13,-6.75 -13,-6.75"
         style="fill:none;stroke:#000000;stroke-width:1px;stroke-linecap:butt;stroke-linejoin:miter;stroke-opacity:1" />
      <path
         sodipodi:nodetypes="caaaac"
         inkscape:connector-curvature="0"
         id="path4085"
         d="m 263.75,101.86219 c 0,0 14.11293,7.1691 16,14 0.79297,2.87041 -2.13796,5.58565 -2.75,8.5 -1.18785,5.65613 2.53802,13.37499 -1.75,17.25 -3.21505,2.90538 -8.74034,0.79568 -13,0 -2.72303,-0.50865 -7.75,-3 -7.75,-3"
         style="fill:none;stroke:#000000;stroke-width:1px;stroke-linecap:butt;stroke-linejoin:miter;stroke-opacity:1" />
      <path
         sodipodi:nodetypes="caaaaac"
         inkscape:connector-curvature="0"
         id="path4087"
         d="m 280,116.11219 c 0,0 17.05626,7.58781 16.5,15 -0.0899,1.19848 -2.52413,0.89637 -3,2 -1.5731,3.6483 3.454,8.05262 2,11.75 -0.65268,1.65969 -2.50265,2.89318 -4.25,3.25 -3.96058,0.80876 -8.27008,-0.9432 -11.75,-3 -1.57337,-0.92994 -3.75,-4 -3.75,-4"
         style="fill:none;stroke:#000000;stroke-width:1px;stroke-linecap:butt;stroke-linejoin:miter;stroke-opacity:1" />
      <path
         sodipodi:nodetypes="caaaac"
         inkscape:connector-curvature="0"
         id="path4089"
         d="m 297,130.86219 c 0,0 7.60145,5.3686 10.75,8.75 3.95443,4.24689 8.94135,8.54449 10,14.25 0.43878,2.36478 0.009,5.36013 -1.75,7 -2.10467,1.96167 -5.74173,2.31836 -8.5,1.5 -6.66984,-1.9789 -15.25,-14.25 -15.25,-14.25"
         style="fill:none;stroke:#000000;stroke-width:1px;stroke-linecap:butt;stroke-linejoin:miter;stroke-opacity:1" />
      <path
         sodipodi:nodetypes="csassc"
         inkscape:connector-curvature="0"
         id="path4091"
         d="m 309.75,164.11219 c 0,0 7.53382,19.94149 11.75,34.25 0.56579,1.92011 4.23259,0.68978 6,-0.25 1.73651,-0.92335 3.84948,-2.81456 3.5,-4.75 -2.47899,-13.72894 -6.87838,-21.83262 -11.25,-30.5 -0.63798,-1.26488 -3.75,-2 -3.75,-2"
         style="fill:none;stroke:#000000;stroke-width:1px;stroke-linecap:butt;stroke-linejoin:miter;stroke-opacity:1" />
      <path
         sodipodi:nodetypes="ccac"
         inkscape:connector-curvature="0"
         id="path4093"
         d="m 321,166.11219 16,15.25 c 0,0 -5.65346,-14.7069 -10.75,-20.5 -2.01569,-2.29118 -7.5,-5.25 -7.5,-5.25"
         style="fill:none;stroke:#000000;stroke-width:1px;stroke-linecap:butt;stroke-linejoin:miter;stroke-opacity:1" />
      <path
         sodipodi:nodetypes="cac"
         inkscape:connector-curvature="0"
         id="path4095"
         d="m 332,176.86219 c 0,0 4.34048,7.68133 3.75,11.75 -0.36184,2.49325 -4.25,6.25 -4.25,6.25"
         style="fill:none;stroke:#000000;stroke-width:1px;stroke-linecap:butt;stroke-linejoin:miter;stroke-opacity:1" />
      <path
         sodipodi:nodetypes="caaac"
         inkscape:connector-curvature="0"
         id="path4097"
         d="m 328.75,164.11219 c 0,0 6.59945,5.43511 9.25,8.75 1.93676,2.42219 5.0078,4.90943 4.75,8 -0.23593,2.82841 -2.66237,6.55848 -5.5,6.5 -0.94994,-0.0196 -1.75,-2.25 -1.75,-2.25"
         style="fill:none;stroke:#000000;stroke-width:1px;stroke-linecap:butt;stroke-linejoin:miter;stroke-opacity:1" />
      <path
         sodipodi:nodetypes="caaac"
         inkscape:connector-curvature="0"
         id="path4099"
         d="m 319.25,155.86219 c 0,0 8.61549,2.10962 12.25,4.5 5.66361,3.7249 11.04777,8.64789 14,14.75 0.51326,1.06088 1.11958,2.4975 0.5,3.5 -0.69271,1.12083 -3.75,1.25 -3.75,1.25"
         style="fill:none;stroke:#000000;stroke-width:1px;stroke-linecap:butt;stroke-linejoin:miter;stroke-opacity:1" />
      <path
         inkscape:connector-curvature="0"
         id="path4101"
         d="m 147.75,118.61219 -4.5,4.75 2.75,1.75 4.75,-5.25"
         style="fill:none;stroke:#000000;stroke-width:1px;stroke-linecap:butt;stroke-linejoin:round;stroke-opacity:1" />
      <path
         inkscape:connector-curvature="0"
         id="path4103"
         d="m 143.75,123.61219 -14.25,13.75 2,1 14.5,-13.25"
         style="fill:none;stroke:#000000;stroke-width:1px;stroke-linecap:butt;stroke-linejoin:round;stroke-opacity:1" />
      <path
         sodipodi:nodetypes="cccc"
         inkscape:connector-curvature="0"
         id="path4105"
         d="m 129.75,137.61219 -10.375,11.25 3.375,1.5 8.5,-11.75"
         style="fill:none;stroke:#000000;stroke-width:1px;stroke-linecap:butt;stroke-linejoin:round;stroke-opacity:1" />
      <path
         inkscape:connector-curvature="0"
         id="path4107"
         d="m 120,149.11219 -7,10.75 9,-9.75"
         style="fill:none;stroke:#000000;stroke-width:1px;stroke-linecap:butt;stroke-linejoin:miter;stroke-opacity:1" />
      <path
         sodipodi:nodetypes="caaaac"
         inkscape:connector-curvature="0"
         id="path4109"
         d="m 156.75,121.48719 c 0,0 -3.99784,2.84385 -4.875,5 -0.21982,0.54033 -0.41248,1.33752 0,1.75 0.61872,0.61872 1.78888,0.25792 2.625,0 1.06017,-0.32703 1.9065,-1.1543 2.75,-1.875 1.47907,-1.26375 4,-4.25 4,-4.25"
         style="fill:none;stroke:#000000;stroke-width:1px;stroke-linecap:butt;stroke-linejoin:miter;stroke-opacity:1" />
      <path
         sodipodi:nodetypes="casaaaac"
         inkscape:connector-curvature="0"
         id="path4111"
         d="m 152,126.73719 c 0,0 -5.72699,5.10202 -8.5,7.75 -2.68483,2.56377 -4.45436,4.32027 -7.875,7.875 -0.37558,0.39031 -0.38302,1.24198 0,1.625 0.26517,0.26517 0.75344,0.0506 1.125,0 0.77127,-0.10513 1.58606,-0.21869 2.25,-0.625 2.99317,-1.83171 4.60823,-5.30458 7.125,-7.75 2.69033,-2.61406 8.5,-7.375 8.5,-7.375"
         style="fill:none;stroke:#000000;stroke-width:1px;stroke-linecap:butt;stroke-linejoin:miter;stroke-opacity:1" />
      <path
         sodipodi:nodetypes="caaaac"
         inkscape:connector-curvature="0"
         id="path4113"
         d="m 135.25,143.73719 c 0,0 -5.96368,5.63713 -8.625,8.74999 -0.7744,0.90579 -2.3303,1.70112 -2.125,2.875 0.10353,0.59194 0.8994,1.01985 1.5,1 1.57423,-0.052 2.58685,-1.81294 3.75,-2.875 3.22273,-2.94264 8.875,-9.62499 8.875,-9.62499"
         style="fill:none;stroke:#000000;stroke-width:1px;stroke-linecap:butt;stroke-linejoin:miter;stroke-opacity:1" />
      <path
         sodipodi:nodetypes="caacac"
         inkscape:connector-curvature="0"
         id="path4115"
         d="m 124.25,155.48718 c 0,0 -4.16047,2.98617 -6.125,4.625 -1.0869,0.90671 -2.25267,1.76032 -3.125,2.875 -1.22964,1.57127 -2.875,5.25 -2.875,5.25 0,0 4.69119,-4.66307 7.25,-6.75 2.33847,-1.90722 7.375,-5.25 7.375,-5.25"
         style="fill:none;stroke:#000000;stroke-width:1px;stroke-linecap:butt;stroke-linejoin:miter;stroke-opacity:1" />
      <path
         sodipodi:nodetypes="caaaac"
         inkscape:connector-curvature="0"
         id="path4117"
         d="m 181.54967,117.03669 c 0,0 2.00936,1.8684 1.76776,3.0052 -0.31613,1.48747 -2.31533,2.05086 -3.71231,2.65165 -1.98525,0.85378 -4.24165,1.64482 -6.36396,1.23744 -0.96313,-0.18487 -2.22962,-0.64144 -2.47487,-1.59099 -0.21757,-0.84238 1.23743,-2.2981 1.23743,-2.2981"
         style="fill:none;stroke:#000000;stroke-width:1px;stroke-linecap:butt;stroke-linejoin:miter;stroke-opacity:1" />
      <path
         sodipodi:nodetypes="caaaaaac"
         inkscape:connector-curvature="0"
         id="path4119"
         d="m 170.75845,122.30587 c 0,0 -5.56925,3.71585 -7.94711,6.04453 -1.82783,1.79003 -4.50802,3.46582 -4.77297,6.01041 -0.0409,0.39316 0.23844,0.7941 0.53033,1.06066 1.07467,0.9814 2.61439,1.69725 4.06586,1.59099 0.47381,-0.0347 0.85435,-0.42615 1.23744,-0.70711 2.58908,-1.89887 4.97962,-4.10458 7.07106,-6.54074 1.50265,-1.75032 3.87603,-5.7333 3.87603,-5.7333"
         style="fill:none;stroke:#000000;stroke-width:1px;stroke-linecap:butt;stroke-linejoin:miter;stroke-opacity:1" />
      <path
         sodipodi:nodetypes="caaaaaaac"
         inkscape:connector-curvature="0"
         id="path4121"
         d="m 158.1169,134.81243 c 0,0 -1.76178,2.42718 -2.8669,3.42476 -3.80882,3.43817 -9.5943,4.57905 -12.75,8.625 -0.29994,0.38456 -0.60563,0.89888 -0.5,1.375 0.17867,0.80537 0.95142,1.54306 1.75,1.74999 1.17456,0.30436 2.43327,-0.4218 3.5,-0.99999 1.84364,-0.99928 3.03781,-2.91422 4.75,-4.125 2.62042,-1.85303 6.22413,-2.36796 8.375,-4.75 0.76401,-0.84612 1.37584,-3.13109 1.37584,-3.13109"
         style="fill:none;stroke:#000000;stroke-width:1px;stroke-linecap:butt;stroke-linejoin:miter;stroke-opacity:1" />
      <path
         sodipodi:nodetypes="caacaac"
         inkscape:connector-curvature="0"
         id="path4123"
         d="m 142.00751,148.26958 c 0,0 -4.3935,5.23294 -6.00751,8.2176 -1.63077,3.01564 -3.24219,6.21811 -3.625,9.625 -0.23951,2.13151 0.875,6.375 0.875,6.375 0,0 1.21388,-5.22946 2.375,-7.625 1.18964,-2.45438 3.26716,-4.38452 4.625,-6.75 1.48076,-2.57963 3.81272,-8.06769 3.81272,-8.06769"
         style="fill:none;stroke:#000000;stroke-width:1px;stroke-linecap:butt;stroke-linejoin:miter;stroke-opacity:1" />
      <path
         sodipodi:nodetypes="cacac"
         inkscape:connector-curvature="0"
         id="path4125"
         d="m 133.25,172.48718 c 0,0 -0.98765,5.45572 -0.5,8.125 0.32845,1.79789 2.25,5 2.25,5 0,0 0.20885,-4.77321 -0.125,-7.125 -0.29122,-2.05149 -1.625,-6 -1.625,-6 z"
         style="fill:none;stroke:#000000;stroke-width:1px;stroke-linecap:butt;stroke-linejoin:miter;stroke-opacity:1" />
      <path
         style="fill:none;stroke:#000000;stroke-width:1px;stroke-linecap:butt;stroke-linejoin:miter;stroke-opacity:1"
         d="m 181.54967,117.03669 c 0,0 2.00936,1.8684 1.76776,3.0052 -0.31613,1.48747 -2.31533,2.05086 -3.71231,2.65165 -1.98525,0.85378 -4.24165,1.64482 -6.36396,1.23744 -0.96313,-0.18487 -2.22962,-0.64144 -2.47487,-1.59099 -0.21757,-0.84238 1.23743,-2.2981 1.23743,-2.2981"
         id="path4127"
         inkscape:connector-curvature="0"
         sodipodi:nodetypes="caaaac" />
      <path
         style="fill:none;stroke:#000000;stroke-width:1px;stroke-linecap:butt;stroke-linejoin:miter;stroke-opacity:1"
         d="m 170.75845,122.30587 c 0,0 -5.56925,3.71585 -7.94711,6.04453 -1.82783,1.79003 -4.50802,3.46582 -4.77297,6.01041 -0.0409,0.39316 0.23844,0.7941 0.53033,1.06066 1.07467,0.9814 2.61439,1.69725 4.06586,1.59099 0.47381,-0.0347 0.85435,-0.42615 1.23744,-0.70711 2.58908,-1.89887 4.97962,-4.10458 7.07106,-6.54074 1.50265,-1.75032 3.87603,-5.7333 3.87603,-5.7333"
         id="path4129"
         inkscape:connector-curvature="0"
         sodipodi:nodetypes="caaaaaac" />
      <path
         style="fill:none;stroke:#000000;stroke-width:1px;stroke-linecap:butt;stroke-linejoin:miter;stroke-opacity:1"
         d="m 158.1169,134.81243 c 0,0 -1.76178,2.42718 -2.8669,3.42476 -3.80882,3.43817 -9.5943,4.57905 -12.75,8.625 -0.29994,0.38456 -0.60563,0.89888 -0.5,1.375 0.17867,0.80537 0.95142,1.54306 1.75,1.74999 1.17456,0.30436 2.43327,-0.4218 3.5,-0.99999 1.84364,-0.99928 3.03781,-2.91422 4.75,-4.125 2.62042,-1.85303 6.22413,-2.36796 8.375,-4.75 0.76401,-0.84612 1.37584,-3.13109 1.37584,-3.13109"
         id="path4131"
         inkscape:connector-curvature="0"
         sodipodi:nodetypes="caaaaaaac" />
      <path
         style="fill:none;stroke:#000000;stroke-width:1px;stroke-linecap:butt;stroke-linejoin:miter;stroke-opacity:1"
         d="m 142.00751,148.26958 c 0,0 -4.3935,5.23294 -6.00751,8.2176 -1.63077,3.01564 -3.24219,6.21811 -3.625,9.625 -0.23951,2.13151 0.875,6.375 0.875,6.375 0,0 1.21388,-5.22946 2.375,-7.625 1.18964,-2.45438 3.26716,-4.38452 4.625,-6.75 1.48076,-2.57963 3.81272,-8.06769 3.81272,-8.06769"
         id="path4133"
         inkscape:connector-curvature="0"
         sodipodi:nodetypes="caacaac" />
      <path
         style="fill:none;stroke:#000000;stroke-width:1px;stroke-linecap:butt;stroke-linejoin:miter;stroke-opacity:1"
         d="m 133.25,172.48718 c 0,0 -0.98765,5.45572 -0.5,8.125 0.32845,1.79789 2.25,5 2.25,5 0,0 0.20885,-4.77321 -0.125,-7.125 -0.29122,-2.05149 -1.625,-6 -1.625,-6 z"
         id="path4135"
         inkscape:connector-curvature="0"
         sodipodi:nodetypes="cacac" />
      <path
         sodipodi:nodetypes="caaaac"
         inkscape:connector-curvature="0"
         id="path4137"
         d="m 190.94397,115.71829 c 0,0 -3.46117,2.14712 -3.94214,3.94214 -0.30653,1.14398 0.0821,2.5945 0.91959,3.43195 0.96428,0.96428 2.63446,1.4118 3.95169,1.05885 2.40869,-0.64541 4.28777,-3.00638 5.28984,-5.28984 0.40083,-0.91338 0.12465,-2.98978 0.12465,-2.98978"
         style="fill:none;stroke:#000000;stroke-width:1px;stroke-linecap:butt;stroke-linejoin:miter;stroke-opacity:1" />
      <path
         sodipodi:nodetypes="caaaaac"
         inkscape:connector-curvature="0"
         id="path4139"
         d="m 186.89864,120.57116 c 0,0 -7.33458,5.27239 -10.4755,8.48635 -2.29012,2.34338 -6.61713,4.55823 -6.01041,7.77817 0.38174,2.0259 3.24376,3.27305 5.3033,3.18198 1.60139,-0.0708 2.67045,-1.78711 3.88909,-2.82843 3.54784,-3.0316 7.56617,-5.85804 9.8995,-9.89949 0.52806,-0.91463 0.82003,-3.06042 0.82003,-3.06042"
         style="fill:none;stroke:#000000;stroke-width:1px;stroke-linecap:butt;stroke-linejoin:miter;stroke-opacity:1" />
      <path
         sodipodi:nodetypes="cccccc"
         inkscape:connector-curvature="0"
         id="path4141"
         d="m 170.53863,137.27694 c -6.1113,5.15621 -12.2226,10.31243 -18.3339,15.46864 0.17678,0.53033 0.35355,1.06066 0.53033,1.59099 0.70711,0.64818 1.41421,1.29637 2.12132,1.94455 0.41248,-0.17678 0.82496,-0.35355 1.23744,-0.53033 5.90753,-5.37056 15.84992,-10.37433 17.14348,-16.16434"
         style="fill:none;stroke:#000000;stroke-width:1px;stroke-linecap:butt;stroke-linejoin:miter;stroke-opacity:1" />
      <path
         sodipodi:nodetypes="caassaac"
         inkscape:connector-curvature="0"
         id="path4143"
         d="m 152.27544,152.95771 c 0,0 -4.66514,3.18458 -6.25789,5.44473 -1.67669,2.37927 -2.31932,5.35179 -3.18198,8.13173 -1.30898,4.21823 0,0 -3.0052,12.90469 -0.10775,0.46269 1.18663,0.5938 1.41421,0.17678 2.49126,-4.56503 2.71521,-5.36686 4.24264,-7.95495 1.42882,-2.421 3.20457,-4.62849 4.59619,-7.07107 1.60653,-2.8198 4.31669,-8.72676 4.31669,-8.72676"
         style="fill:none;stroke:#000000;stroke-width:1px;stroke-linecap:butt;stroke-linejoin:miter;stroke-opacity:1" />
      <path
         sodipodi:nodetypes="cacac"
         inkscape:connector-curvature="0"
         id="path4145"
         d="m 140.8514,179.55825 c 0,0 0.70042,4.37367 1.62132,6.35723 1.44118,3.10421 5.96231,8.35876 5.96231,8.35876 0,0 -2.90717,-4.80626 -4.19086,-7.30178 -1.24324,-2.41685 -3.39277,-7.41421 -3.39277,-7.41421 z"
         style="fill:none;stroke:#000000;stroke-width:1px;stroke-linecap:butt;stroke-linejoin:miter;stroke-opacity:1" />
      <path
         sodipodi:nodetypes="caaac"
         inkscape:connector-curvature="0"
         id="path4147"
         d="m 205.23774,122.33999 c 0,0 -3.30697,2.86493 -3.18198,4.77297 0.16378,2.50019 2.5772,4.85139 4.94975,5.65686 1.42257,0.48295 3.29317,0.11035 4.41942,-0.88389 0.83817,-0.73992 1.06066,-3.18198 1.06066,-3.18198"
         style="fill:none;stroke:#000000;stroke-width:1px;stroke-linecap:butt;stroke-linejoin:miter;stroke-opacity:1" />
      <path
         sodipodi:nodetypes="csaaaac"
         inkscape:connector-curvature="0"
         id="path4149"
         d="m 202.05576,128.3504 c 0,0 -3.07643,3.35907 -9.54594,6.71751 -0.61214,0.31777 0.27251,1.40899 0.70711,1.94455 1.6176,1.9934 4.03866,3.4915 6.54074,4.06586 1.09723,0.25187 2.50574,0.38112 3.35875,-0.35355 1.24537,-1.07259 0.46635,-3.32148 1.23744,-4.77297 0.62675,-1.17979 2.65165,-3.00521 2.65165,-3.00521"
         style="fill:none;stroke:#000000;stroke-width:1px;stroke-linecap:butt;stroke-linejoin:miter;stroke-opacity:1" />
      <path
         sodipodi:nodetypes="cacc"
         inkscape:connector-curvature="0"
         id="path4151"
         d="m 192.6866,136.83568 c 0,0 -3.48201,1.6384 -4.77297,3.0052 -1.75668,1.85989 -3.71231,6.71752 -3.71231,6.71752 l 9.72271,-8.83884"
         style="fill:none;stroke:#000000;stroke-width:1px;stroke-linecap:butt;stroke-linejoin:miter;stroke-opacity:1" />
      <path
         sodipodi:nodetypes="ccc"
         inkscape:connector-curvature="0"
         id="path4153"
         d="m 197.45957,140.54799 c -8.56881,7.73433 -9.14656,16.03945 -11.49049,24.21841 -1.73456,-9.20685 -3.37917,-18.40728 7.77818,-26.69328"
         style="fill:none;stroke:#000000;stroke-width:1px;stroke-linecap:butt;stroke-linejoin:miter;stroke-opacity:1" />
      <path
         sodipodi:nodetypes="caaaac"
         inkscape:connector-curvature="0"
         id="path4155"
         d="m 222.38508,131.88593 c 0,0 -4.77047,2.89998 -5.83363,5.3033 -0.19071,0.43111 -0.27155,1.02889 0,1.41422 1.00923,1.4321 3.19794,1.79217 4.94975,1.76776 1.13793,-0.0159 2.47264,-0.3475 3.18198,-1.23743 1.2622,-1.58352 0.88388,-6.01041 0.88388,-6.01041"
         style="fill:none;stroke:#000000;stroke-width:1px;stroke-linecap:butt;stroke-linejoin:miter;stroke-opacity:1" />
      <path
         inkscape:connector-curvature="0"
         id="path4157"
         d="m 216.1979,138.957 -4.94975,5.3033 2.2981,0.35355"
         style="fill:none;stroke:#000000;stroke-width:1px;stroke-linecap:butt;stroke-linejoin:miter;stroke-opacity:1" />
      <path
         sodipodi:nodetypes="ccc"
         inkscape:connector-curvature="0"
         id="path4159"
         d="m 216.72823,139.66411 c -6.90264,7.95495 -3.54277,15.9099 -3.53554,23.86485 0.97655,-7.94652 1.34589,-16.04484 7.77818,-22.62742"
         style="fill:none;stroke:#000000;stroke-width:1px;stroke-linecap:butt;stroke-linejoin:miter;stroke-opacity:1" />
      <path
         sodipodi:nodetypes="caac"
         inkscape:connector-curvature="0"
         id="path4161"
         d="m 237.94143,134.36081 c 0,0 -0.35512,1.84154 0.17678,2.47487 0.9375,1.11629 2.89587,1.61851 4.24264,1.06066 0.31744,-0.13149 0.53033,-0.88388 0.53033,-0.88388"
         style="fill:none;stroke:#000000;stroke-width:1px;stroke-linecap:butt;stroke-linejoin:miter;stroke-opacity:1" />
      <path
         sodipodi:nodetypes="caaac"
         inkscape:connector-curvature="0"
         id="path4163"
         d="m 237.58788,135.42147 c 0,0 -5.69787,2.9234 -6.01041,5.65685 -0.0483,0.42217 0.31624,0.894 0.70711,1.06066 1.54172,0.65736 3.48377,-0.0715 4.94974,-0.88388 1.45961,-0.80886 3.35876,-3.71231 3.35876,-3.71231"
         style="fill:none;stroke:#000000;stroke-width:1px;stroke-linecap:butt;stroke-linejoin:miter;stroke-opacity:1" />
      <path
         sodipodi:nodetypes="ccc"
         inkscape:connector-curvature="0"
         id="path4165"
         d="m 230.87036,141.60865 c -3.62346,4.75473 -4.73398,10.45181 -4.59619,16.61701 1.85851,-5.51632 3.97821,-11.01201 9.19239,-16.26346"
         style="fill:none;stroke:#000000;stroke-width:1px;stroke-linecap:butt;stroke-linejoin:miter;stroke-opacity:1" />
      <path
         sodipodi:nodetypes="czzc"
         inkscape:connector-curvature="0"
         id="path4167"
         d="m 257.74042,139.84088 c 0,0 -1.57363,0.65326 -1.59099,1.59099 -0.0174,0.93773 0.82891,2.1763 2.2981,2.47488 1.46919,0.29858 5.12652,-2.2981 5.12652,-2.2981"
         style="fill:none;stroke:#000000;stroke-width:1px;stroke-linecap:butt;stroke-linejoin:miter;stroke-opacity:1" />
      <path
         sodipodi:nodetypes="caaac"
         inkscape:connector-curvature="0"
         id="path4169"
         d="m 255.79588,141.2551 c 0,0 -6.12006,2.16908 -6.18719,4.77297 -0.014,0.54309 0.72314,0.88564 1.23744,1.06066 1.06136,0.3612 2.30993,0.21933 3.35876,-0.17678 1.68741,-0.63729 4.24264,-3.35876 4.24264,-3.35876"
         style="fill:none;stroke:#000000;stroke-width:1px;stroke-linecap:butt;stroke-linejoin:miter;stroke-opacity:1" />
      <path
         sodipodi:nodetypes="ccc"
         inkscape:connector-curvature="0"
         id="path4171"
         d="m 249.96225,144.61385 c -4.54348,5.47194 -7.00499,11.20412 -7.77818,17.14734 2.11936,-4.63115 2.82576,-8.97972 9.36917,-14.49568"
         style="fill:none;stroke:#000000;stroke-width:1px;stroke-linecap:butt;stroke-linejoin:miter;stroke-opacity:1" />
      <path
         sodipodi:nodetypes="caassaac"
         inkscape:connector-curvature="0"
         id="path4173"
         d="m 281.60527,145.85129 c 0,0 -1.86926,1.11989 -2.82842,0.88389 -0.56644,-0.13937 -1.21505,-0.65453 -1.23744,-1.23744 -0.0208,-0.54287 1.55617,-1.0147 1.06066,-1.23744 -2.48245,-1.11593 -7.68864,2.74443 -8.83883,4.24264 -0.36062,0.46973 -0.23154,1.33885 0.17677,1.76777 0.82166,0.86314 2.38541,0.84232 3.53554,0.53033 2.26484,-0.61436 5.48007,-4.41942 5.48007,-4.41942"
         style="fill:none;stroke:#000000;stroke-width:1px;stroke-linecap:butt;stroke-linejoin:miter;stroke-opacity:1" />
      <path
         sodipodi:nodetypes="ccc"
         inkscape:connector-curvature="0"
         id="path4175"
         d="m 269.58446,149.21005 c -4.50432,3.46362 -5.15744,8.85283 -7.07107,13.6118 3.15263,-2.71831 5.53856,-3.47516 10.42983,-11.84403"
         style="fill:none;stroke:#000000;stroke-width:1px;stroke-linecap:butt;stroke-linejoin:miter;stroke-opacity:1" />
    </g>
    <path
       style="fill:none;stroke:#000000;stroke-width:2;stroke-linecap:round;stroke-linejoin:round;stroke-miterlimit:4;stroke-opacity:1;stroke-dasharray:none"
       d="M 170.72301,555.96191 193.25,581.36218"
       id="path4354"
       inkscape:connector-curvature="0"
       sodipodi:nodetypes="cc" />
    <path
       style="fill:none;stroke:#000000;stroke-width:2;stroke-linecap:round;stroke-linejoin:round;stroke-miterlimit:4;stroke-opacity:1;stroke-dasharray:none"
       d="m 186.82713,580.99476 11.75,-0.25"
       id="path4356"
       inkscape:connector-curvature="0"
       sodipodi:nodetypes="cc" />
  </g>
</svg>
