<?xml version="1.0" encoding="UTF-8" standalone="no"?>
<!-- Created with Inkscape (http://www.inkscape.org/) -->

<svg
   xmlns:dc="http://purl.org/dc/elements/1.1/"
   xmlns:cc="http://creativecommons.org/ns#"
   xmlns:rdf="http://www.w3.org/1999/02/22-rdf-syntax-ns#"
   xmlns:svg="http://www.w3.org/2000/svg"
   xmlns="http://www.w3.org/2000/svg"
   xmlns:sodipodi="http://sodipodi.sourceforge.net/DTD/sodipodi-0.dtd"
   xmlns:inkscape="http://www.inkscape.org/namespaces/inkscape"
   width="24"
   height="24"
   id="svg21083"
   version="1.1"
   inkscape:version="0.48.2 r9819"
   sodipodi:docname="New document 38">
  <defs
     id="defs21085" />
  <sodipodi:namedview
     id="base"
     pagecolor="#ffffff"
     bordercolor="#666666"
     borderopacity="1.0"
     inkscape:pageopacity="0.0"
     inkscape:pageshadow="2"
     inkscape:zoom="2.8"
     inkscape:cx="-54.613482"
     inkscape:cy="-18.027209"
     inkscape:document-units="px"
     inkscape:current-layer="layer1"
     showgrid="false"
     fit-margin-top="0"
     fit-margin-left="0"
     fit-margin-right="0"
     fit-margin-bottom="0"
     inkscape:window-width="1366"
     inkscape:window-height="720"
     inkscape:window-x="1"
     inkscape:window-y="0"
     inkscape:window-maximized="0" />
  <metadata
     id="metadata21088">
    <rdf:RDF>
      <cc:Work
         rdf:about="">
        <dc:format>image/svg+xml</dc:format>
        <dc:type
           rdf:resource="http://purl.org/dc/dcmitype/StillImage" />
        <dc:title></dc:title>
      </cc:Work>
    </rdf:RDF>
  </metadata>
  <g
     inkscape:label="Layer 1"
     inkscape:groupmode="layer"
     id="layer1"
     transform="translate(-363,-520.3622)">
    <g
       transform="translate(-81,-1363.6378)"
       id="tumblr"
       style="fill:#e1c165;fill-opacity:1">
      <path
         inkscape:connector-curvature="0"
         id="path15491"
         d="m 465.5,1884 h -19 c -1.375,0 -2.5,1.125 -2.5,2.5 v 19 c 0,1.375 1.125,2.5 2.5,2.5 h 19 c 1.375,0 2.5,-1.125 2.5,-2.5 v -19 c 0,-1.375 -1.125,-2.5 -2.5,-2.5 z m -9.853,20.25 c -0.343,0 -0.583,0 -0.935,0 -1.545,0.012 -3.713,-0.436 -3.713,-2.935 V 1895 h -2 v -3 c 0,0 1.554,-0.022 2.477,-1.096 0.923,-1.074 0.902,-1.881 0.957,-2.904 H 455 v 4 h 4 v 3 h -4 v 5.816 c 0,0.342 0.979,0.853 1.819,0.853 0.811,0 1.522,-0.322 2.181,-0.735 v 2.811 c -0.542,0.288 -0.994,0.505 -3.353,0.505 z m 6.853,0.331 c -1.146,0 -2.081,-0.935 -2.081,-2.081 0,-1.146 0.935,-2.081 2.081,-2.081 1.146,0 2.081,0.935 2.081,2.081 0,1.146 -0.935,2.081 -2.081,2.081 z"
         style="fill:#e1c165;fill-opacity:1" />
    </g>
  </g>
</svg>
