<svg width="56" height="52" viewBox="0 0 56 52" fill="none" xmlns="http://www.w3.org/2000/svg">
<rect x="5" y="9.94593" width="40" height="40" transform="rotate(-10 5 9.94593)" fill="#FF0000"/>
<path d="M19.5578 15.5636H16.9035L15.5851 23.1691H14.4894L15.8078 15.5636H13.1535L13.3176 14.6379H19.7219L19.5578 15.5636Z" fill="white"/>
<path d="M22.4875 23.2863C21.9445 23.2746 21.4719 23.1437 21.0695 22.8937C20.6711 22.6437 20.3566 22.2765 20.1261 21.7922C19.8957 21.3039 19.7687 20.757 19.7453 20.1515C19.7219 19.6789 19.7746 19.0949 19.9035 18.3996C20.0324 17.7043 20.2551 17.0773 20.5715 16.5187C20.8879 15.9601 21.2726 15.5129 21.7258 15.1769C22.339 14.7238 23.0383 14.5051 23.8234 14.5207C24.6554 14.5363 25.3117 14.8254 25.7922 15.3879C26.2726 15.9465 26.5304 16.7043 26.5656 17.6613C26.5812 18.0715 26.5383 18.5929 26.4367 19.2258C26.339 19.8586 26.1613 20.4465 25.9035 20.9894C25.6496 21.5324 25.3254 21.9875 24.9308 22.3547C24.2433 22.9953 23.4289 23.3058 22.4875 23.2863ZM25.4816 17.9308C25.5051 17.1613 25.3703 16.5656 25.0773 16.1437C24.7844 15.7179 24.3488 15.4972 23.7707 15.4816C23.2472 15.466 22.7785 15.6066 22.3644 15.9035C21.9543 16.2004 21.6164 16.6457 21.3508 17.2394C21.089 17.8293 20.923 18.5773 20.8527 19.4836L20.8351 19.8644C20.8117 20.6301 20.9484 21.2297 21.2453 21.6633C21.5422 22.0969 21.9738 22.3215 22.5402 22.3371C23.2785 22.3566 23.8898 22.091 24.3742 21.5402C24.8625 20.9855 25.1867 20.2082 25.3469 19.2082C25.425 18.716 25.4699 18.2902 25.4816 17.9308Z" fill="white"/>
<path d="M34.7629 14.6379L33.7785 20.4094C33.6457 21.2961 33.2629 22.0031 32.6301 22.5304C31.9972 23.0539 31.2336 23.3078 30.339 23.2922C29.7804 23.2804 29.2941 23.1554 28.8801 22.9172C28.4699 22.675 28.1672 22.3371 27.9719 21.9035C27.7765 21.466 27.7121 20.9699 27.7785 20.4152L28.7629 14.6379H29.8469L28.8683 20.4211C28.8019 21.0187 28.9035 21.4894 29.173 21.8332C29.4426 22.173 29.8508 22.3508 30.3976 22.3664C30.9914 22.3898 31.4914 22.2297 31.8976 21.8859C32.3078 21.5383 32.5656 21.0519 32.6711 20.4269L33.6554 14.6379H34.7629Z" fill="white"/>
<path d="M38.6945 19.7179H36.7258L36.1281 23.1691H35.0207L36.5031 14.6379L39.0695 14.6437C39.964 14.6476 40.6457 14.8742 41.1144 15.3234C41.5832 15.7726 41.7804 16.384 41.7062 17.1574C41.6633 17.6926 41.4679 18.1633 41.1203 18.5695C40.7765 18.9758 40.3176 19.2824 39.7433 19.4894L41.0676 23.0929L41.0617 23.1691H39.8898L38.6945 19.7179ZM36.884 18.798L38.5012 18.8039C39.0637 18.8039 39.5383 18.6554 39.925 18.3586C40.3117 18.0578 40.5383 17.6574 40.6047 17.1574C40.6633 16.6691 40.5656 16.2863 40.3117 16.009C40.0578 15.7316 39.6711 15.5851 39.1515 15.5695L37.4465 15.5636L36.884 18.798Z" fill="white"/>
<path d="M19.8566 28.6379L18.8722 34.4094C18.7394 35.2961 18.3566 36.0031 17.7238 36.5304C17.091 37.0539 16.3273 37.3078 15.4328 37.2922C14.8742 37.2804 14.3879 37.1554 13.9738 36.9172C13.5636 36.675 13.2609 36.3371 13.0656 35.9035C12.8703 35.466 12.8058 34.9699 12.8722 34.4152L13.8566 28.6379H14.9406L13.9621 34.4211C13.8957 35.0187 13.9972 35.4894 14.2668 35.8332C14.5363 36.173 14.9445 36.3508 15.4914 36.3664C16.0851 36.3898 16.5851 36.2297 16.9914 35.8859C17.4015 35.5383 17.6594 35.0519 17.7648 34.4269L18.7492 28.6379H19.8566Z" fill="white"/>
<path d="M25.4933 33.2258H21.9074L21.3801 36.2492H25.5519L25.3879 37.1691H20.1203L21.6027 28.6379H26.8117L26.6476 29.5636H22.5402L22.0656 32.3058H25.6515L25.4933 33.2258Z" fill="white"/>
<path d="M33.9601 29.5636H31.3058L29.9875 37.1691H28.8918L30.2101 29.5636H27.5558L27.7199 28.6379H34.1242L33.9601 29.5636Z" fill="white"/>
<path d="M35.1906 36.2492H39.1164L38.9523 37.1691H33.925L35.4074 28.6379H36.5148L35.1906 36.2492Z" fill="white"/>
<path d="M41.4308 37.1691H40.3351L41.8176 28.6379H42.9133L41.4308 37.1691Z" fill="white"/>
</svg>
